<?xml version="1.0" standalone="no"?>
<!DOCTYPE svg PUBLIC "-//W3C//DTD SVG 1.1//EN" "http://www.w3.org/Graphics/SVG/1.1/DTD/svg11.dtd">
<svg version="1.1" width="1200" height="582" onload="init(evt)" viewBox="0 0 1200 582" xmlns="http://www.w3.org/2000/svg" xmlns:xlink="http://www.w3.org/1999/xlink">
<!-- Flame graph stack visualization. See https://github.com/brendangregg/FlameGraph for latest version, and http://www.brendangregg.com/flamegraphs.html for examples. -->
<!-- NOTES:  -->
<defs>
	<linearGradient id="background" y1="0" y2="1" x1="0" x2="0" >
		<stop stop-color="#eeeeee" offset="5%" />
		<stop stop-color="#eeeeb0" offset="95%" />
	</linearGradient>
</defs>
<style type="text/css">
	text { font-family:Verdana; font-size:12px; fill:rgb(0,0,0); }
	#search, #ignorecase { opacity:0.1; cursor:pointer; }
	#search:hover, #search.show, #ignorecase:hover, #ignorecase.show { opacity:1; }
	#subtitle { text-anchor:middle; font-color:rgb(160,160,160); }
	#title { text-anchor:middle; font-size:17px}
	#unzoom { cursor:pointer; }
	#frames > *:hover { stroke:black; stroke-width:0.5; cursor:pointer; }
	.hide { display:none; }
	.parent { opacity:0.5; }
</style>
<script type="text/ecmascript">
<![CDATA[
	"use strict";
	var details, searchbtn, unzoombtn, matchedtxt, svg, searching, currentSearchTerm, ignorecase, ignorecaseBtn;
	function init(evt) {
		details = document.getElementById("details").firstChild;
		searchbtn = document.getElementById("search");
		ignorecaseBtn = document.getElementById("ignorecase");
		unzoombtn = document.getElementById("unzoom");
		matchedtxt = document.getElementById("matched");
		svg = document.getElementsByTagName("svg")[0];
		searching = 0;
		currentSearchTerm = null;

		// use GET parameters to restore a flamegraphs state.
		var params = get_params();
		if (params.x && params.y)
			zoom(find_group(document.querySelector('[x="' + params.x + '"][y="' + params.y + '"]')));
                if (params.s) search(params.s);
	}

	// event listeners
	window.addEventListener("click", function(e) {
		var target = find_group(e.target);
		if (target) {
			if (target.nodeName == "a") {
				if (e.ctrlKey === false) return;
				e.preventDefault();
			}
			if (target.classList.contains("parent")) unzoom(true);
			zoom(target);
			if (!document.querySelector('.parent')) {
				// we have basically done a clearzoom so clear the url
				var params = get_params();
				if (params.x) delete params.x;
				if (params.y) delete params.y;
				history.replaceState(null, null, parse_params(params));
				unzoombtn.classList.add("hide");
				return;
			}

			// set parameters for zoom state
			var el = target.querySelector("rect");
			if (el && el.attributes && el.attributes.y && el.attributes._orig_x) {
				var params = get_params()
				params.x = el.attributes._orig_x.value;
				params.y = el.attributes.y.value;
				history.replaceState(null, null, parse_params(params));
			}
		}
		else if (e.target.id == "unzoom") clearzoom();
		else if (e.target.id == "search") search_prompt();
		else if (e.target.id == "ignorecase") toggle_ignorecase();
	}, false)

	// mouse-over for info
	// show
	window.addEventListener("mouseover", function(e) {
		var target = find_group(e.target);
		if (target) details.nodeValue = "Function: " + g_to_text(target);
	}, false)

	// clear
	window.addEventListener("mouseout", function(e) {
		var target = find_group(e.target);
		if (target) details.nodeValue = ' ';
	}, false)

	// ctrl-F for search
	// ctrl-I to toggle case-sensitive search
	window.addEventListener("keydown",function (e) {
		if (e.keyCode === 114 || (e.ctrlKey && e.keyCode === 70)) {
			e.preventDefault();
			search_prompt();
		}
		else if (e.ctrlKey && e.keyCode === 73) {
			e.preventDefault();
			toggle_ignorecase();
		}
	}, false)

	// functions
	function get_params() {
		var params = {};
		var paramsarr = window.location.search.substr(1).split('&');
		for (var i = 0; i < paramsarr.length; ++i) {
			var tmp = paramsarr[i].split("=");
			if (!tmp[0] || !tmp[1]) continue;
			params[tmp[0]]  = decodeURIComponent(tmp[1]);
		}
		return params;
	}
	function parse_params(params) {
		var uri = "?";
		for (var key in params) {
			uri += key + '=' + encodeURIComponent(params[key]) + '&';
		}
		if (uri.slice(-1) == "&")
			uri = uri.substring(0, uri.length - 1);
		if (uri == '?')
			uri = window.location.href.split('?')[0];
		return uri;
	}
	function find_child(node, selector) {
		var children = node.querySelectorAll(selector);
		if (children.length) return children[0];
	}
	function find_group(node) {
		var parent = node.parentElement;
		if (!parent) return;
		if (parent.id == "frames") return node;
		return find_group(parent);
	}
	function orig_save(e, attr, val) {
		if (e.attributes["_orig_" + attr] != undefined) return;
		if (e.attributes[attr] == undefined) return;
		if (val == undefined) val = e.attributes[attr].value;
		e.setAttribute("_orig_" + attr, val);
	}
	function orig_load(e, attr) {
		if (e.attributes["_orig_"+attr] == undefined) return;
		e.attributes[attr].value = e.attributes["_orig_" + attr].value;
		e.removeAttribute("_orig_"+attr);
	}
	function g_to_text(e) {
		var text = find_child(e, "title").firstChild.nodeValue;
		return (text)
	}
	function g_to_func(e) {
		var func = g_to_text(e);
		// if there's any manipulation we want to do to the function
		// name before it's searched, do it here before returning.
		return (func);
	}
	function update_text(e) {
		var r = find_child(e, "rect");
		var t = find_child(e, "text");
		var w = parseFloat(r.attributes.width.value) -3;
		var txt = find_child(e, "title").textContent.replace(/\([^(]*\)$/,"");
		t.attributes.x.value = parseFloat(r.attributes.x.value) + 3;

		// Smaller than this size won't fit anything
		if (w < 2 * 12 * 0.59) {
			t.textContent = "";
			return;
		}

		t.textContent = txt;
		var sl = t.getSubStringLength(0, txt.length);
		// check if only whitespace or if we can fit the entire string into width w
		if (/^ *$/.test(txt) || sl < w)
			return;

		// this isn't perfect, but gives a good starting point
		// and avoids calling getSubStringLength too often
		var start = Math.floor((w/sl) * txt.length);
		for (var x = start; x > 0; x = x-2) {
			if (t.getSubStringLength(0, x + 2) <= w) {
				t.textContent = txt.substring(0, x) + "..";
				return;
			}
		}
		t.textContent = "";
	}

	// zoom
	function zoom_reset(e) {
		if (e.attributes != undefined) {
			orig_load(e, "x");
			orig_load(e, "width");
		}
		if (e.childNodes == undefined) return;
		for (var i = 0, c = e.childNodes; i < c.length; i++) {
			zoom_reset(c[i]);
		}
	}
	function zoom_child(e, x, ratio) {
		if (e.attributes != undefined) {
			if (e.attributes.x != undefined) {
				orig_save(e, "x");
				e.attributes.x.value = (parseFloat(e.attributes.x.value) - x - 10) * ratio + 10;
				if (e.tagName == "text")
					e.attributes.x.value = find_child(e.parentNode, "rect[x]").attributes.x.value + 3;
			}
			if (e.attributes.width != undefined) {
				orig_save(e, "width");
				e.attributes.width.value = parseFloat(e.attributes.width.value) * ratio;
			}
		}

		if (e.childNodes == undefined) return;
		for (var i = 0, c = e.childNodes; i < c.length; i++) {
			zoom_child(c[i], x - 10, ratio);
		}
	}
	function zoom_parent(e) {
		if (e.attributes) {
			if (e.attributes.x != undefined) {
				orig_save(e, "x");
				e.attributes.x.value = 10;
			}
			if (e.attributes.width != undefined) {
				orig_save(e, "width");
				e.attributes.width.value = parseInt(svg.width.baseVal.value) - (10 * 2);
			}
		}
		if (e.childNodes == undefined) return;
		for (var i = 0, c = e.childNodes; i < c.length; i++) {
			zoom_parent(c[i]);
		}
	}
	function zoom(node) {
		var attr = find_child(node, "rect").attributes;
		var width = parseFloat(attr.width.value);
		var xmin = parseFloat(attr.x.value);
		var xmax = parseFloat(xmin + width);
		var ymin = parseFloat(attr.y.value);
		var ratio = (svg.width.baseVal.value - 2 * 10) / width;

		// XXX: Workaround for JavaScript float issues (fix me)
		var fudge = 0.0001;

		unzoombtn.classList.remove("hide");

		var el = document.getElementById("frames").children;
		for (var i = 0; i < el.length; i++) {
			var e = el[i];
			var a = find_child(e, "rect").attributes;
			var ex = parseFloat(a.x.value);
			var ew = parseFloat(a.width.value);
			var upstack;
			// Is it an ancestor
			if (0 == 0) {
				upstack = parseFloat(a.y.value) > ymin;
			} else {
				upstack = parseFloat(a.y.value) < ymin;
			}
			if (upstack) {
				// Direct ancestor
				if (ex <= xmin && (ex+ew+fudge) >= xmax) {
					e.classList.add("parent");
					zoom_parent(e);
					update_text(e);
				}
				// not in current path
				else
					e.classList.add("hide");
			}
			// Children maybe
			else {
				// no common path
				if (ex < xmin || ex + fudge >= xmax) {
					e.classList.add("hide");
				}
				else {
					zoom_child(e, xmin, ratio);
					update_text(e);
				}
			}
		}
		search();
	}
	function unzoom(dont_update_text) {
		unzoombtn.classList.add("hide");
		var el = document.getElementById("frames").children;
		for(var i = 0; i < el.length; i++) {
			el[i].classList.remove("parent");
			el[i].classList.remove("hide");
			zoom_reset(el[i]);
			if(!dont_update_text) update_text(el[i]);
		}
		search();
	}
	function clearzoom() {
		unzoom();

		// remove zoom state
		var params = get_params();
		if (params.x) delete params.x;
		if (params.y) delete params.y;
		history.replaceState(null, null, parse_params(params));
	}

	// search
	function toggle_ignorecase() {
		ignorecase = !ignorecase;
		if (ignorecase) {
			ignorecaseBtn.classList.add("show");
		} else {
			ignorecaseBtn.classList.remove("show");
		}
		reset_search();
		search();
	}
	function reset_search() {
		var el = document.querySelectorAll("#frames rect");
		for (var i = 0; i < el.length; i++) {
			orig_load(el[i], "fill")
		}
		var params = get_params();
		delete params.s;
		history.replaceState(null, null, parse_params(params));
	}
	function search_prompt() {
		if (!searching) {
			var term = prompt("Enter a search term (regexp " +
			    "allowed, eg: ^ext4_)"
			    + (ignorecase ? ", ignoring case" : "")
			    + "\nPress Ctrl-i to toggle case sensitivity", "");
			if (term != null) search(term);
		} else {
			reset_search();
			searching = 0;
			currentSearchTerm = null;
			searchbtn.classList.remove("show");
			searchbtn.firstChild.nodeValue = "Search"
			matchedtxt.classList.add("hide");
			matchedtxt.firstChild.nodeValue = ""
		}
	}
	function search(term) {
		if (term) currentSearchTerm = term;
		if (currentSearchTerm === null) return;

		var re = new RegExp(currentSearchTerm, ignorecase ? 'i' : '');
		var el = document.getElementById("frames").children;
		var matches = new Object();
		var maxwidth = 0;
		for (var i = 0; i < el.length; i++) {
			var e = el[i];
			var func = g_to_func(e);
			var rect = find_child(e, "rect");
			if (func == null || rect == null)
				continue;

			// Save max width. Only works as we have a root frame
			var w = parseFloat(rect.attributes.width.value);
			if (w > maxwidth)
				maxwidth = w;

			if (func.match(re)) {
				// highlight
				var x = parseFloat(rect.attributes.x.value);
				orig_save(rect, "fill");
				rect.attributes.fill.value = "rgb(230,0,230)";

				// remember matches
				if (matches[x] == undefined) {
					matches[x] = w;
				} else {
					if (w > matches[x]) {
						// overwrite with parent
						matches[x] = w;
					}
				}
				searching = 1;
			}
		}
		if (!searching)
			return;
		var params = get_params();
		params.s = currentSearchTerm;
		history.replaceState(null, null, parse_params(params));

		searchbtn.classList.add("show");
		searchbtn.firstChild.nodeValue = "Reset Search";

		// calculate percent matched, excluding vertical overlap
		var count = 0;
		var lastx = -1;
		var lastw = 0;
		var keys = Array();
		for (k in matches) {
			if (matches.hasOwnProperty(k))
				keys.push(k);
		}
		// sort the matched frames by their x location
		// ascending, then width descending
		keys.sort(function(a, b){
			return a - b;
		});
		// Step through frames saving only the biggest bottom-up frames
		// thanks to the sort order. This relies on the tree property
		// where children are always smaller than their parents.
		var fudge = 0.0001;	// JavaScript floating point
		for (var k in keys) {
			var x = parseFloat(keys[k]);
			var w = matches[keys[k]];
			if (x >= lastx + lastw - fudge) {
				count += w;
				lastx = x;
				lastw = w;
			}
		}
		// display matched percent
		matchedtxt.classList.remove("hide");
		var pct = 100 * count / maxwidth;
		if (pct != 100) pct = pct.toFixed(1)
		matchedtxt.firstChild.nodeValue = "Matched: " + pct + "%";
	}
]]>
</script>
<rect x="0.0" y="0" width="1200.0" height="582.0" fill="url(#background)"  />
<text id="title" x="600.00" y="24" >Flame Graph</text>
<text id="details" x="10.00" y="565" > </text>
<text id="unzoom" x="10.00" y="24" class="hide">Reset Zoom</text>
<text id="search" x="1090.00" y="24" >Search</text>
<text id="ignorecase" x="1174.00" y="24" >ic</text>
<text id="matched" x="1090.00" y="565" > </text>
<g id="frames">
<g >
<title>strcmp (306,284 samples, 0.02%)</title><rect x="1189.3" y="357" width="0.2" height="15.0" fill="rgb(217,58,13)" rx="2" ry="2" />
<text  x="1192.28" y="367.5" ></text>
</g>
<g >
<title>compute_congestion_pressure (1,828,640,729 samples, 99.60%)</title><rect x="10.5" y="437" width="1175.2" height="15.0" fill="rgb(218,61,14)" rx="2" ry="2" />
<text  x="13.51" y="447.5" >compute_congestion_pressure</text>
</g>
<g >
<title>wp_page_copy (431,272 samples, 0.02%)</title><rect x="1189.7" y="245" width="0.3" height="15.0" fill="rgb(214,42,10)" rx="2" ry="2" />
<text  x="1192.72" y="255.5" ></text>
</g>
<g >
<title>__mmap_prepare (197,158 samples, 0.01%)</title><rect x="1189.2" y="149" width="0.1" height="15.0" fill="rgb(212,35,8)" rx="2" ry="2" />
<text  x="1192.15" y="159.5" ></text>
</g>
<g >
<title>do_page_fault (473,754 samples, 0.03%)</title><rect x="1186.4" y="325" width="0.3" height="15.0" fill="rgb(216,54,13)" rx="2" ry="2" />
<text  x="1189.37" y="335.5" ></text>
</g>
<g >
<title>generate_grid[abi:cxx11] (989,286 samples, 0.05%)</title><rect x="1185.7" y="437" width="0.7" height="15.0" fill="rgb(253,224,53)" rx="2" ry="2" />
<text  x="1188.74" y="447.5" ></text>
</g>
<g >
<title>__mem_cgroup_charge (492,670 samples, 0.03%)</title><rect x="1186.7" y="245" width="0.3" height="15.0" fill="rgb(218,60,14)" rx="2" ry="2" />
<text  x="1189.68" y="255.5" ></text>
</g>
<g >
<title>do_el0_svc (197,158 samples, 0.01%)</title><rect x="1189.2" y="293" width="0.1" height="15.0" fill="rgb(218,60,14)" rx="2" ry="2" />
<text  x="1192.15" y="303.5" ></text>
</g>
<g >
<title>dl_main (1,316,968 samples, 0.07%)</title><rect x="1189.2" y="453" width="0.8" height="15.0" fill="rgb(236,145,34)" rx="2" ry="2" />
<text  x="1192.15" y="463.5" ></text>
</g>
<g >
<title>_dl_relocate_object (813,526 samples, 0.04%)</title><rect x="1189.5" y="437" width="0.5" height="15.0" fill="rgb(231,120,28)" rx="2" ry="2" />
<text  x="1192.47" y="447.5" ></text>
</g>
<g >
<title>el0t_64_sync (492,670 samples, 0.03%)</title><rect x="1186.7" y="421" width="0.3" height="15.0" fill="rgb(217,56,13)" rx="2" ry="2" />
<text  x="1189.68" y="431.5" ></text>
</g>
<g >
<title>invoke_syscall (197,158 samples, 0.01%)</title><rect x="1189.2" y="261" width="0.1" height="15.0" fill="rgb(209,18,4)" rx="2" ry="2" />
<text  x="1192.15" y="271.5" ></text>
</g>
<g >
<title>__libc_start_main@@GLIBC_2.34 (1,834,604,693 samples, 99.92%)</title><rect x="10.1" y="485" width="1179.1" height="15.0" fill="rgb(229,113,27)" rx="2" ry="2" />
<text  x="13.09" y="495.5" >__libc_start_main@@GLIBC_2.34</text>
</g>
<g >
<title>do_mem_abort (473,754 samples, 0.03%)</title><rect x="1186.4" y="357" width="0.3" height="15.0" fill="rgb(249,206,49)" rx="2" ry="2" />
<text  x="1189.37" y="367.5" ></text>
</g>
<g >
<title>int std::uniform_int_distribution&lt;int&gt;::operator (494,643 samples, 0.03%)</title><rect x="1186.1" y="421" width="0.3" height="15.0" fill="rgb(244,180,43)" rx="2" ry="2" />
<text  x="1189.06" y="431.5" ></text>
</g>
<g >
<title>__arm64_sys_mmap (197,158 samples, 0.01%)</title><rect x="1189.2" y="245" width="0.1" height="15.0" fill="rgb(231,119,28)" rx="2" ry="2" />
<text  x="1192.15" y="255.5" ></text>
</g>
<g >
<title>vma_complete (197,158 samples, 0.01%)</title><rect x="1189.2" y="101" width="0.1" height="15.0" fill="rgb(220,72,17)" rx="2" ry="2" />
<text  x="1192.15" y="111.5" ></text>
</g>
<g >
<title>handle_pte_fault (473,754 samples, 0.03%)</title><rect x="1186.4" y="277" width="0.3" height="15.0" fill="rgb(217,57,13)" rx="2" ry="2" />
<text  x="1189.37" y="287.5" ></text>
</g>
<g >
<title>_dl_lookup_symbol_x (813,526 samples, 0.04%)</title><rect x="1189.5" y="421" width="0.5" height="15.0" fill="rgb(211,28,6)" rx="2" ry="2" />
<text  x="1192.47" y="431.5" ></text>
</g>
<g >
<title>handle_pte_fault (492,670 samples, 0.03%)</title><rect x="1186.7" y="293" width="0.3" height="15.0" fill="rgb(217,57,13)" rx="2" ry="2" />
<text  x="1189.68" y="303.5" ></text>
</g>
<g >
<title>grid_bfs (1,836,056,859 samples, 100.00%)</title><rect x="10.0" y="517" width="1180.0" height="15.0" fill="rgb(238,156,37)" rx="2" ry="2" />
<text  x="13.00" y="527.5" >grid_bfs</text>
</g>
<g >
<title>format_route_label[abi:cxx11] (581,946 samples, 0.03%)</title><rect x="1187.0" y="421" width="0.4" height="15.0" fill="rgb(250,211,50)" rx="2" ry="2" />
<text  x="1189.99" y="431.5" ></text>
</g>
<g >
<title>openaux (503,442 samples, 0.03%)</title><rect x="1189.2" y="405" width="0.3" height="15.0" fill="rgb(252,217,52)" rx="2" ry="2" />
<text  x="1192.15" y="415.5" ></text>
</g>
<g >
<title>vm_mmap_pgoff (197,158 samples, 0.01%)</title><rect x="1189.2" y="213" width="0.1" height="15.0" fill="rgb(237,150,35)" rx="2" ry="2" />
<text  x="1192.15" y="223.5" ></text>
</g>
<g >
<title>mas_wr_store_entry (197,158 samples, 0.01%)</title><rect x="1189.2" y="69" width="0.1" height="15.0" fill="rgb(215,46,11)" rx="2" ry="2" />
<text  x="1192.15" y="79.5" ></text>
</g>
<g >
<title>filemap_map_pages (652,562 samples, 0.04%)</title><rect x="10.1" y="165" width="0.4" height="15.0" fill="rgb(229,112,27)" rx="2" ry="2" />
<text  x="13.09" y="175.5" ></text>
</g>
<g >
<title>__mmap_region (197,158 samples, 0.01%)</title><rect x="1189.2" y="165" width="0.1" height="15.0" fill="rgb(253,225,53)" rx="2" ry="2" />
<text  x="1192.15" y="175.5" ></text>
</g>
<g >
<title>do_page_fault (492,670 samples, 0.03%)</title><rect x="1186.7" y="341" width="0.3" height="15.0" fill="rgb(216,54,13)" rx="2" ry="2" />
<text  x="1189.68" y="351.5" ></text>
</g>
<g >
<title>el0t_64_sync_handler (473,754 samples, 0.03%)</title><rect x="1186.4" y="389" width="0.3" height="15.0" fill="rgb(211,32,7)" rx="2" ry="2" />
<text  x="1189.37" y="399.5" ></text>
</g>
<g >
<title>mas_wr_bnode (197,158 samples, 0.01%)</title><rect x="1189.2" y="53" width="0.1" height="15.0" fill="rgb(248,198,47)" rx="2" ry="2" />
<text  x="1192.15" y="63.5" ></text>
</g>
<g >
<title>el0t_64_sync_handler (609,529 samples, 0.03%)</title><rect x="1185.3" y="389" width="0.4" height="15.0" fill="rgb(211,32,7)" rx="2" ry="2" />
<text  x="1188.35" y="399.5" ></text>
</g>
<g >
<title>__cxa_finalize (652,562 samples, 0.04%)</title><rect x="10.1" y="373" width="0.4" height="15.0" fill="rgb(240,162,38)" rx="2" ry="2" />
<text  x="13.09" y="383.5" ></text>
</g>
<g >
<title>__handle_mm_fault (492,670 samples, 0.03%)</title><rect x="1186.7" y="309" width="0.3" height="15.0" fill="rgb(207,9,2)" rx="2" ry="2" />
<text  x="1189.68" y="319.5" ></text>
</g>
<g >
<title>el0_svc (197,158 samples, 0.01%)</title><rect x="1189.2" y="309" width="0.1" height="15.0" fill="rgb(244,183,43)" rx="2" ry="2" />
<text  x="1192.15" y="319.5" ></text>
</g>
<g >
<title>vma_start_read (609,529 samples, 0.03%)</title><rect x="1185.3" y="293" width="0.4" height="15.0" fill="rgb(227,101,24)" rx="2" ry="2" />
<text  x="1188.35" y="303.5" ></text>
</g>
<g >
<title>el0t_64_sync (431,272 samples, 0.02%)</title><rect x="1189.7" y="389" width="0.3" height="15.0" fill="rgb(217,56,13)" rx="2" ry="2" />
<text  x="1192.72" y="399.5" ></text>
</g>
<g >
<title>do_lookup_x (813,526 samples, 0.04%)</title><rect x="1189.5" y="405" width="0.5" height="15.0" fill="rgb(245,187,44)" rx="2" ry="2" />
<text  x="1192.47" y="415.5" ></text>
</g>
<g >
<title>_dl_sysdep_start (1,316,968 samples, 0.07%)</title><rect x="1189.2" y="469" width="0.8" height="15.0" fill="rgb(234,137,32)" rx="2" ry="2" />
<text  x="1192.15" y="479.5" ></text>
</g>
<g >
<title>el0t_64_sync (197,158 samples, 0.01%)</title><rect x="1189.2" y="341" width="0.1" height="15.0" fill="rgb(217,56,13)" rx="2" ry="2" />
<text  x="1192.15" y="351.5" ></text>
</g>
<g >
<title>do_read_fault (652,562 samples, 0.04%)</title><rect x="10.1" y="181" width="0.4" height="15.0" fill="rgb(223,84,20)" rx="2" ry="2" />
<text  x="13.09" y="191.5" ></text>
</g>
<g >
<title>mod_memcg_lruvec_state (652,562 samples, 0.04%)</title><rect x="10.1" y="101" width="0.4" height="15.0" fill="rgb(224,91,21)" rx="2" ry="2" />
<text  x="13.09" y="111.5" ></text>
</g>
<g >
<title>__libc_start_call_main (1,834,604,693 samples, 99.92%)</title><rect x="10.1" y="469" width="1179.1" height="15.0" fill="rgb(210,26,6)" rx="2" ry="2" />
<text  x="13.09" y="479.5" >__libc_start_call_main</text>
</g>
<g >
<title>folio_alloc_mpol_noprof (473,754 samples, 0.03%)</title><rect x="1186.4" y="197" width="0.3" height="15.0" fill="rgb(219,64,15)" rx="2" ry="2" />
<text  x="1189.37" y="207.5" ></text>
</g>
<g >
<title>__handle_mm_fault (431,272 samples, 0.02%)</title><rect x="1189.7" y="293" width="0.3" height="15.0" fill="rgb(207,9,2)" rx="2" ry="2" />
<text  x="1192.72" y="303.5" ></text>
</g>
<g >
<title>el0t_64_sync (473,754 samples, 0.03%)</title><rect x="1186.4" y="405" width="0.3" height="15.0" fill="rgb(217,56,13)" rx="2" ry="2" />
<text  x="1189.37" y="415.5" ></text>
</g>
<g >
<title>_dl_name_match_p (306,284 samples, 0.02%)</title><rect x="1189.3" y="373" width="0.2" height="15.0" fill="rgb(206,6,1)" rx="2" ry="2" />
<text  x="1192.28" y="383.5" ></text>
</g>
<g >
<title>vms_gather_munmap_vmas (197,158 samples, 0.01%)</title><rect x="1189.2" y="133" width="0.1" height="15.0" fill="rgb(250,209,50)" rx="2" ry="2" />
<text  x="1192.15" y="143.5" ></text>
</g>
<g >
<title>el0t_64_sync_handler (652,562 samples, 0.04%)</title><rect x="10.1" y="325" width="0.4" height="15.0" fill="rgb(211,32,7)" rx="2" ry="2" />
<text  x="13.09" y="335.5" ></text>
</g>
<g >
<title>__handle_mm_fault (473,754 samples, 0.03%)</title><rect x="1186.4" y="293" width="0.3" height="15.0" fill="rgb(207,9,2)" rx="2" ry="2" />
<text  x="1189.37" y="303.5" ></text>
</g>
<g >
<title>_dl_map_object_deps (503,442 samples, 0.03%)</title><rect x="1189.2" y="437" width="0.3" height="15.0" fill="rgb(219,68,16)" rx="2" ry="2" />
<text  x="1192.15" y="447.5" ></text>
</g>
<g >
<title>do_mem_abort (652,562 samples, 0.04%)</title><rect x="10.1" y="293" width="0.4" height="15.0" fill="rgb(249,206,49)" rx="2" ry="2" />
<text  x="13.09" y="303.5" ></text>
</g>
<g >
<title>do_mem_abort (431,272 samples, 0.02%)</title><rect x="1189.7" y="341" width="0.3" height="15.0" fill="rgb(249,206,49)" rx="2" ry="2" />
<text  x="1192.72" y="351.5" ></text>
</g>
<g >
<title>do_mem_abort (492,670 samples, 0.03%)</title><rect x="1186.7" y="373" width="0.3" height="15.0" fill="rgb(249,206,49)" rx="2" ry="2" />
<text  x="1189.68" y="383.5" ></text>
</g>
<g >
<title>el0_svc_common.constprop.0 (197,158 samples, 0.01%)</title><rect x="1189.2" y="277" width="0.1" height="15.0" fill="rgb(224,89,21)" rx="2" ry="2" />
<text  x="1192.15" y="287.5" ></text>
</g>
<g >
<title>_start (1,835,921,661 samples, 99.99%)</title><rect x="10.1" y="501" width="1179.9" height="15.0" fill="rgb(245,185,44)" rx="2" ry="2" />
<text  x="13.09" y="511.5" >_start</text>
</g>
<g >
<title>memcg_rstat_updated.part.0 (652,562 samples, 0.04%)</title><rect x="10.1" y="85" width="0.4" height="15.0" fill="rgb(225,96,23)" rx="2" ry="2" />
<text  x="13.09" y="95.5" ></text>
</g>
<g >
<title>handle_pte_fault (652,562 samples, 0.04%)</title><rect x="10.1" y="213" width="0.4" height="15.0" fill="rgb(217,57,13)" rx="2" ry="2" />
<text  x="13.09" y="223.5" ></text>
</g>
<g >
<title>__alloc_frozen_pages_noprof (473,754 samples, 0.03%)</title><rect x="1186.4" y="165" width="0.3" height="15.0" fill="rgb(228,109,26)" rx="2" ry="2" />
<text  x="1189.37" y="175.5" ></text>
</g>
<g >
<title>el0_da (609,529 samples, 0.03%)</title><rect x="1185.3" y="373" width="0.4" height="15.0" fill="rgb(217,55,13)" rx="2" ry="2" />
<text  x="1188.35" y="383.5" ></text>
</g>
<g >
<title>get_page_from_freelist (473,754 samples, 0.03%)</title><rect x="1186.4" y="149" width="0.3" height="15.0" fill="rgb(252,218,52)" rx="2" ry="2" />
<text  x="1189.37" y="159.5" ></text>
</g>
<g >
<title>std::mersenne_twister_engine&lt;unsigned long, 32ul, 624ul, 397ul, 31ul, 2567483615ul, 11ul, 4294967295ul, 7ul, 2636928640ul, 15ul, 4022730752ul, 18ul, 1812433253ul&gt;::operator (494,643 samples, 0.03%)</title><rect x="1186.1" y="405" width="0.3" height="15.0" fill="rgb(235,139,33)" rx="2" ry="2" />
<text  x="1189.06" y="415.5" ></text>
</g>
<g >
<title>folio_add_new_anon_rmap (431,272 samples, 0.02%)</title><rect x="1189.7" y="229" width="0.3" height="15.0" fill="rgb(233,133,31)" rx="2" ry="2" />
<text  x="1192.72" y="239.5" ></text>
</g>
<g >
<title>run_all_requests (3,728,862 samples, 0.20%)</title><rect x="1186.4" y="437" width="2.4" height="15.0" fill="rgb(249,203,48)" rx="2" ry="2" />
<text  x="1189.37" y="447.5" ></text>
</g>
<g >
<title>mmap64 (197,158 samples, 0.01%)</title><rect x="1189.2" y="357" width="0.1" height="15.0" fill="rgb(220,70,16)" rx="2" ry="2" />
<text  x="1192.15" y="367.5" ></text>
</g>
<g >
<title>lock_vma_under_rcu (609,529 samples, 0.03%)</title><rect x="1185.3" y="309" width="0.4" height="15.0" fill="rgb(251,211,50)" rx="2" ry="2" />
<text  x="1188.35" y="319.5" ></text>
</g>
<g >
<title>do_mem_abort (609,529 samples, 0.03%)</title><rect x="1185.3" y="357" width="0.4" height="15.0" fill="rgb(249,206,49)" rx="2" ry="2" />
<text  x="1188.35" y="367.5" ></text>
</g>
<g >
<title>handle_mm_fault (473,754 samples, 0.03%)</title><rect x="1186.4" y="309" width="0.3" height="15.0" fill="rgb(234,135,32)" rx="2" ry="2" />
<text  x="1189.37" y="319.5" ></text>
</g>
<g >
<title>_dl_catch_exception (503,442 samples, 0.03%)</title><rect x="1189.2" y="421" width="0.3" height="15.0" fill="rgb(253,223,53)" rx="2" ry="2" />
<text  x="1192.15" y="431.5" ></text>
</g>
<g >
<title>do_translation_fault (652,562 samples, 0.04%)</title><rect x="10.1" y="277" width="0.4" height="15.0" fill="rgb(239,158,37)" rx="2" ry="2" />
<text  x="13.09" y="287.5" ></text>
</g>
<g >
<title>el0t_64_sync (609,529 samples, 0.03%)</title><rect x="1185.3" y="405" width="0.4" height="15.0" fill="rgb(217,56,13)" rx="2" ry="2" />
<text  x="1188.35" y="415.5" ></text>
</g>
<g >
<title>el0t_64_sync_handler (492,670 samples, 0.03%)</title><rect x="1186.7" y="405" width="0.3" height="15.0" fill="rgb(211,32,7)" rx="2" ry="2" />
<text  x="1189.68" y="415.5" ></text>
</g>
<g >
<title>mmap_region (197,158 samples, 0.01%)</title><rect x="1189.2" y="181" width="0.1" height="15.0" fill="rgb(231,121,28)" rx="2" ry="2" />
<text  x="1192.15" y="191.5" ></text>
</g>
<g >
<title>do_anonymous_page (473,754 samples, 0.03%)</title><rect x="1186.4" y="261" width="0.3" height="15.0" fill="rgb(238,155,37)" rx="2" ry="2" />
<text  x="1189.37" y="271.5" ></text>
</g>
<g >
<title>mas_store_prealloc (197,158 samples, 0.01%)</title><rect x="1189.2" y="85" width="0.1" height="15.0" fill="rgb(223,85,20)" rx="2" ry="2" />
<text  x="1192.15" y="95.5" ></text>
</g>
<g >
<title>_dl_fini (652,562 samples, 0.04%)</title><rect x="10.1" y="421" width="0.4" height="15.0" fill="rgb(216,52,12)" rx="2" ry="2" />
<text  x="13.09" y="431.5" ></text>
</g>
<g >
<title>_dl_map_object_from_fd (197,158 samples, 0.01%)</title><rect x="1189.2" y="373" width="0.1" height="15.0" fill="rgb(249,205,49)" rx="2" ry="2" />
<text  x="1192.15" y="383.5" ></text>
</g>
<g >
<title>do_translation_fault (473,754 samples, 0.03%)</title><rect x="1186.4" y="341" width="0.3" height="15.0" fill="rgb(239,158,37)" rx="2" ry="2" />
<text  x="1189.37" y="351.5" ></text>
</g>
<g >
<title>handle_mm_fault (431,272 samples, 0.02%)</title><rect x="1189.7" y="309" width="0.3" height="15.0" fill="rgb(234,135,32)" rx="2" ry="2" />
<text  x="1192.72" y="319.5" ></text>
</g>
<g >
<title>do_page_fault (609,529 samples, 0.03%)</title><rect x="1185.3" y="325" width="0.4" height="15.0" fill="rgb(216,54,13)" rx="2" ry="2" />
<text  x="1188.35" y="335.5" ></text>
</g>
<g >
<title>handle_mm_fault (492,670 samples, 0.03%)</title><rect x="1186.7" y="325" width="0.3" height="15.0" fill="rgb(234,135,32)" rx="2" ry="2" />
<text  x="1189.68" y="335.5" ></text>
</g>
<g >
<title>set_pte_range (652,562 samples, 0.04%)</title><rect x="10.1" y="149" width="0.4" height="15.0" fill="rgb(224,90,21)" rx="2" ry="2" />
<text  x="13.09" y="159.5" ></text>
</g>
<g >
<title>do_translation_fault (609,529 samples, 0.03%)</title><rect x="1185.3" y="341" width="0.4" height="15.0" fill="rgb(239,158,37)" rx="2" ry="2" />
<text  x="1188.35" y="351.5" ></text>
</g>
<g >
<title>__run_exit_handlers (652,562 samples, 0.04%)</title><rect x="10.1" y="437" width="0.4" height="15.0" fill="rgb(216,51,12)" rx="2" ry="2" />
<text  x="13.09" y="447.5" ></text>
</g>
<g >
<title>all (1,836,061,353 samples, 100%)</title><rect x="10.0" y="533" width="1180.0" height="15.0" fill="rgb(213,39,9)" rx="2" ry="2" />
<text  x="13.00" y="543.5" ></text>
</g>
<g >
<title>__lruvec_stat_mod_folio (652,562 samples, 0.04%)</title><rect x="10.1" y="117" width="0.4" height="15.0" fill="rgb(246,191,45)" rx="2" ry="2" />
<text  x="13.09" y="127.5" ></text>
</g>
<g >
<title>_dl_start (1,316,968 samples, 0.07%)</title><rect x="1189.2" y="485" width="0.8" height="15.0" fill="rgb(237,151,36)" rx="2" ry="2" />
<text  x="1192.15" y="495.5" ></text>
</g>
<g >
<title>alloc_anon_folio (492,670 samples, 0.03%)</title><rect x="1186.7" y="261" width="0.3" height="15.0" fill="rgb(223,86,20)" rx="2" ry="2" />
<text  x="1189.68" y="271.5" ></text>
</g>
<g >
<title>do_fault (652,562 samples, 0.04%)</title><rect x="10.1" y="197" width="0.4" height="15.0" fill="rgb(248,200,47)" rx="2" ry="2" />
<text  x="13.09" y="207.5" ></text>
</g>
<g >
<title>alloc_pages_mpol (473,754 samples, 0.03%)</title><rect x="1186.4" y="181" width="0.3" height="15.0" fill="rgb(254,227,54)" rx="2" ry="2" />
<text  x="1189.37" y="191.5" ></text>
</g>
<g >
<title>_dl_call_fini (652,562 samples, 0.04%)</title><rect x="10.1" y="405" width="0.4" height="15.0" fill="rgb(241,166,39)" rx="2" ry="2" />
<text  x="13.09" y="415.5" ></text>
</g>
<g >
<title>do_wp_page (431,272 samples, 0.02%)</title><rect x="1189.7" y="261" width="0.3" height="15.0" fill="rgb(212,36,8)" rx="2" ry="2" />
<text  x="1192.72" y="271.5" ></text>
</g>
<g >
<title>el0t_64_sync_handler (431,272 samples, 0.02%)</title><rect x="1189.7" y="373" width="0.3" height="15.0" fill="rgb(211,32,7)" rx="2" ry="2" />
<text  x="1192.72" y="383.5" ></text>
</g>
<g >
<title>[libstdc++.so.6.0.33] (652,562 samples, 0.04%)</title><rect x="10.1" y="389" width="0.4" height="15.0" fill="rgb(216,51,12)" rx="2" ry="2" />
<text  x="13.09" y="399.5" ></text>
</g>
<g >
<title>shortest_path_bfs (2,180,492 samples, 0.12%)</title><rect x="1187.4" y="421" width="1.4" height="15.0" fill="rgb(217,58,14)" rx="2" ry="2" />
<text  x="1190.37" y="431.5" ></text>
</g>
<g >
<title>do_anonymous_page (492,670 samples, 0.03%)</title><rect x="1186.7" y="277" width="0.3" height="15.0" fill="rgb(238,155,37)" rx="2" ry="2" />
<text  x="1189.68" y="287.5" ></text>
</g>
<g >
<title>mas_store_b_node (197,158 samples, 0.01%)</title><rect x="1189.2" y="37" width="0.1" height="15.0" fill="rgb(241,168,40)" rx="2" ry="2" />
<text  x="1192.15" y="47.5" ></text>
</g>
<g >
<title>el0_ia (652,562 samples, 0.04%)</title><rect x="10.1" y="309" width="0.4" height="15.0" fill="rgb(234,136,32)" rx="2" ry="2" />
<text  x="13.09" y="319.5" ></text>
</g>
<g >
<title>el0t_64_sync (652,562 samples, 0.04%)</title><rect x="10.1" y="341" width="0.4" height="15.0" fill="rgb(217,56,13)" rx="2" ry="2" />
<text  x="13.09" y="351.5" ></text>
</g>
<g >
<title>__handle_mm_fault (652,562 samples, 0.04%)</title><rect x="10.1" y="229" width="0.4" height="15.0" fill="rgb(207,9,2)" rx="2" ry="2" />
<text  x="13.09" y="239.5" ></text>
</g>
<g >
<title>handle_mm_fault (652,562 samples, 0.04%)</title><rect x="10.1" y="245" width="0.4" height="15.0" fill="rgb(234,135,32)" rx="2" ry="2" />
<text  x="13.09" y="255.5" ></text>
</g>
<g >
<title>el0_da (473,754 samples, 0.03%)</title><rect x="1186.4" y="373" width="0.3" height="15.0" fill="rgb(217,55,13)" rx="2" ry="2" />
<text  x="1189.37" y="383.5" ></text>
</g>
<g >
<title>[libc.so.6] (652,562 samples, 0.04%)</title><rect x="10.1" y="453" width="0.4" height="15.0" fill="rgb(223,84,20)" rx="2" ry="2" />
<text  x="13.09" y="463.5" ></text>
</g>
<g >
<title>vma_alloc_zeroed_movable_folio (473,754 samples, 0.03%)</title><rect x="1186.4" y="229" width="0.3" height="15.0" fill="rgb(232,126,30)" rx="2" ry="2" />
<text  x="1189.37" y="239.5" ></text>
</g>
<g >
<title>[libstdc++.so.6.0.33] (652,562 samples, 0.04%)</title><rect x="10.1" y="357" width="0.4" height="15.0" fill="rgb(216,51,12)" rx="2" ry="2" />
<text  x="13.09" y="367.5" ></text>
</g>
<g >
<title>folio_add_file_rmap_ptes (652,562 samples, 0.04%)</title><rect x="10.1" y="133" width="0.4" height="15.0" fill="rgb(225,92,22)" rx="2" ry="2" />
<text  x="13.09" y="143.5" ></text>
</g>
<g >
<title>_dl_map_object (503,442 samples, 0.03%)</title><rect x="1189.2" y="389" width="0.3" height="15.0" fill="rgb(248,199,47)" rx="2" ry="2" />
<text  x="1192.15" y="399.5" ></text>
</g>
<g >
<title>el0_da (431,272 samples, 0.02%)</title><rect x="1189.7" y="357" width="0.3" height="15.0" fill="rgb(217,55,13)" rx="2" ry="2" />
<text  x="1192.72" y="367.5" ></text>
</g>
<g >
<title>__folio_mod_stat (431,272 samples, 0.02%)</title><rect x="1189.7" y="213" width="0.3" height="15.0" fill="rgb(254,227,54)" rx="2" ry="2" />
<text  x="1192.72" y="223.5" ></text>
</g>
<g >
<title>el0t_64_sync_handler (197,158 samples, 0.01%)</title><rect x="1189.2" y="325" width="0.1" height="15.0" fill="rgb(211,32,7)" rx="2" ry="2" />
<text  x="1192.15" y="335.5" ></text>
</g>
<g >
<title>do_page_fault (652,562 samples, 0.04%)</title><rect x="10.1" y="261" width="0.4" height="15.0" fill="rgb(216,54,13)" rx="2" ry="2" />
<text  x="13.09" y="271.5" ></text>
</g>
<g >
<title>do_page_fault (431,272 samples, 0.02%)</title><rect x="1189.7" y="325" width="0.3" height="15.0" fill="rgb(216,54,13)" rx="2" ry="2" />
<text  x="1192.72" y="335.5" ></text>
</g>
<g >
<title>__memset_zva64 (473,754 samples, 0.03%)</title><rect x="1186.4" y="421" width="0.3" height="15.0" fill="rgb(205,1,0)" rx="2" ry="2" />
<text  x="1189.37" y="431.5" ></text>
</g>
<g >
<title>__lruvec_stat_mod_folio (431,272 samples, 0.02%)</title><rect x="1189.7" y="197" width="0.3" height="15.0" fill="rgb(246,191,45)" rx="2" ry="2" />
<text  x="1192.72" y="207.5" ></text>
</g>
<g >
<title>vma_alloc_folio_noprof (473,754 samples, 0.03%)</title><rect x="1186.4" y="213" width="0.3" height="15.0" fill="rgb(218,61,14)" rx="2" ry="2" />
<text  x="1189.37" y="223.5" ></text>
</g>
<g >
<title>std::__cxx11::to_string (581,946 samples, 0.03%)</title><rect x="1187.0" y="405" width="0.4" height="15.0" fill="rgb(213,38,9)" rx="2" ry="2" />
<text  x="1189.99" y="415.5" ></text>
</g>
<g >
<title>do_translation_fault (492,670 samples, 0.03%)</title><rect x="1186.7" y="357" width="0.3" height="15.0" fill="rgb(239,158,37)" rx="2" ry="2" />
<text  x="1189.68" y="367.5" ></text>
</g>
<g >
<title>handle_pte_fault (431,272 samples, 0.02%)</title><rect x="1189.7" y="277" width="0.3" height="15.0" fill="rgb(217,57,13)" rx="2" ry="2" />
<text  x="1192.72" y="287.5" ></text>
</g>
<g >
<title>__split_vma (197,158 samples, 0.01%)</title><rect x="1189.2" y="117" width="0.1" height="15.0" fill="rgb(237,150,36)" rx="2" ry="2" />
<text  x="1192.15" y="127.5" ></text>
</g>
<g >
<title>main (1,833,952,131 samples, 99.89%)</title><rect x="10.5" y="453" width="1178.7" height="15.0" fill="rgb(243,179,42)" rx="2" ry="2" />
<text  x="13.51" y="463.5" >main</text>
</g>
<g >
<title>alloc_anon_folio (473,754 samples, 0.03%)</title><rect x="1186.4" y="245" width="0.3" height="15.0" fill="rgb(223,86,20)" rx="2" ry="2" />
<text  x="1189.37" y="255.5" ></text>
</g>
<g >
<title>el0_da (492,670 samples, 0.03%)</title><rect x="1186.7" y="389" width="0.3" height="15.0" fill="rgb(217,55,13)" rx="2" ry="2" />
<text  x="1189.68" y="399.5" ></text>
</g>
<g >
<title>do_mmap (197,158 samples, 0.01%)</title><rect x="1189.2" y="197" width="0.1" height="15.0" fill="rgb(228,107,25)" rx="2" ry="2" />
<text  x="1192.15" y="207.5" ></text>
</g>
<g >
<title>summarize_heatmap (593,254 samples, 0.03%)</title><rect x="1188.8" y="437" width="0.4" height="15.0" fill="rgb(206,7,1)" rx="2" ry="2" />
<text  x="1191.77" y="447.5" ></text>
</g>
<g >
<title>ksys_mmap_pgoff (197,158 samples, 0.01%)</title><rect x="1189.2" y="229" width="0.1" height="15.0" fill="rgb(245,185,44)" rx="2" ry="2" />
<text  x="1192.15" y="239.5" ></text>
</g>
<g >
<title>__memcpy_sve (609,529 samples, 0.03%)</title><rect x="1185.3" y="421" width="0.4" height="15.0" fill="rgb(209,20,4)" rx="2" ry="2" />
<text  x="1188.35" y="431.5" ></text>
</g>
</g>
</svg>
