<?xml version="1.0" standalone="no"?>
<!DOCTYPE svg PUBLIC "-//W3C//DTD SVG 1.1//EN" "http://www.w3.org/Graphics/SVG/1.1/DTD/svg11.dtd">
<svg version="1.1" width="1200" height="598" onload="init(evt)" viewBox="0 0 1200 598" xmlns="http://www.w3.org/2000/svg" xmlns:xlink="http://www.w3.org/1999/xlink">
<!-- Flame graph stack visualization. See https://github.com/brendangregg/FlameGraph for latest version, and http://www.brendangregg.com/flamegraphs.html for examples. -->
<!-- NOTES:  -->
<defs>
	<linearGradient id="background" y1="0" y2="1" x1="0" x2="0" >
		<stop stop-color="#eeeeee" offset="5%" />
		<stop stop-color="#eeeeb0" offset="95%" />
	</linearGradient>
</defs>
<style type="text/css">
	text { font-family:Verdana; font-size:12px; fill:rgb(0,0,0); }
	#search, #ignorecase { opacity:0.1; cursor:pointer; }
	#search:hover, #search.show, #ignorecase:hover, #ignorecase.show { opacity:1; }
	#subtitle { text-anchor:middle; font-color:rgb(160,160,160); }
	#title { text-anchor:middle; font-size:17px}
	#unzoom { cursor:pointer; }
	#frames > *:hover { stroke:black; stroke-width:0.5; cursor:pointer; }
	.hide { display:none; }
	.parent { opacity:0.5; }
</style>
<script type="text/ecmascript">
<![CDATA[
	"use strict";
	var details, searchbtn, unzoombtn, matchedtxt, svg, searching, currentSearchTerm, ignorecase, ignorecaseBtn;
	function init(evt) {
		details = document.getElementById("details").firstChild;
		searchbtn = document.getElementById("search");
		ignorecaseBtn = document.getElementById("ignorecase");
		unzoombtn = document.getElementById("unzoom");
		matchedtxt = document.getElementById("matched");
		svg = document.getElementsByTagName("svg")[0];
		searching = 0;
		currentSearchTerm = null;

		// use GET parameters to restore a flamegraphs state.
		var params = get_params();
		if (params.x && params.y)
			zoom(find_group(document.querySelector('[x="' + params.x + '"][y="' + params.y + '"]')));
                if (params.s) search(params.s);
	}

	// event listeners
	window.addEventListener("click", function(e) {
		var target = find_group(e.target);
		if (target) {
			if (target.nodeName == "a") {
				if (e.ctrlKey === false) return;
				e.preventDefault();
			}
			if (target.classList.contains("parent")) unzoom(true);
			zoom(target);
			if (!document.querySelector('.parent')) {
				// we have basically done a clearzoom so clear the url
				var params = get_params();
				if (params.x) delete params.x;
				if (params.y) delete params.y;
				history.replaceState(null, null, parse_params(params));
				unzoombtn.classList.add("hide");
				return;
			}

			// set parameters for zoom state
			var el = target.querySelector("rect");
			if (el && el.attributes && el.attributes.y && el.attributes._orig_x) {
				var params = get_params()
				params.x = el.attributes._orig_x.value;
				params.y = el.attributes.y.value;
				history.replaceState(null, null, parse_params(params));
			}
		}
		else if (e.target.id == "unzoom") clearzoom();
		else if (e.target.id == "search") search_prompt();
		else if (e.target.id == "ignorecase") toggle_ignorecase();
	}, false)

	// mouse-over for info
	// show
	window.addEventListener("mouseover", function(e) {
		var target = find_group(e.target);
		if (target) details.nodeValue = "Function: " + g_to_text(target);
	}, false)

	// clear
	window.addEventListener("mouseout", function(e) {
		var target = find_group(e.target);
		if (target) details.nodeValue = ' ';
	}, false)

	// ctrl-F for search
	// ctrl-I to toggle case-sensitive search
	window.addEventListener("keydown",function (e) {
		if (e.keyCode === 114 || (e.ctrlKey && e.keyCode === 70)) {
			e.preventDefault();
			search_prompt();
		}
		else if (e.ctrlKey && e.keyCode === 73) {
			e.preventDefault();
			toggle_ignorecase();
		}
	}, false)

	// functions
	function get_params() {
		var params = {};
		var paramsarr = window.location.search.substr(1).split('&');
		for (var i = 0; i < paramsarr.length; ++i) {
			var tmp = paramsarr[i].split("=");
			if (!tmp[0] || !tmp[1]) continue;
			params[tmp[0]]  = decodeURIComponent(tmp[1]);
		}
		return params;
	}
	function parse_params(params) {
		var uri = "?";
		for (var key in params) {
			uri += key + '=' + encodeURIComponent(params[key]) + '&';
		}
		if (uri.slice(-1) == "&")
			uri = uri.substring(0, uri.length - 1);
		if (uri == '?')
			uri = window.location.href.split('?')[0];
		return uri;
	}
	function find_child(node, selector) {
		var children = node.querySelectorAll(selector);
		if (children.length) return children[0];
	}
	function find_group(node) {
		var parent = node.parentElement;
		if (!parent) return;
		if (parent.id == "frames") return node;
		return find_group(parent);
	}
	function orig_save(e, attr, val) {
		if (e.attributes["_orig_" + attr] != undefined) return;
		if (e.attributes[attr] == undefined) return;
		if (val == undefined) val = e.attributes[attr].value;
		e.setAttribute("_orig_" + attr, val);
	}
	function orig_load(e, attr) {
		if (e.attributes["_orig_"+attr] == undefined) return;
		e.attributes[attr].value = e.attributes["_orig_" + attr].value;
		e.removeAttribute("_orig_"+attr);
	}
	function g_to_text(e) {
		var text = find_child(e, "title").firstChild.nodeValue;
		return (text)
	}
	function g_to_func(e) {
		var func = g_to_text(e);
		// if there's any manipulation we want to do to the function
		// name before it's searched, do it here before returning.
		return (func);
	}
	function update_text(e) {
		var r = find_child(e, "rect");
		var t = find_child(e, "text");
		var w = parseFloat(r.attributes.width.value) -3;
		var txt = find_child(e, "title").textContent.replace(/\([^(]*\)$/,"");
		t.attributes.x.value = parseFloat(r.attributes.x.value) + 3;

		// Smaller than this size won't fit anything
		if (w < 2 * 12 * 0.59) {
			t.textContent = "";
			return;
		}

		t.textContent = txt;
		var sl = t.getSubStringLength(0, txt.length);
		// check if only whitespace or if we can fit the entire string into width w
		if (/^ *$/.test(txt) || sl < w)
			return;

		// this isn't perfect, but gives a good starting point
		// and avoids calling getSubStringLength too often
		var start = Math.floor((w/sl) * txt.length);
		for (var x = start; x > 0; x = x-2) {
			if (t.getSubStringLength(0, x + 2) <= w) {
				t.textContent = txt.substring(0, x) + "..";
				return;
			}
		}
		t.textContent = "";
	}

	// zoom
	function zoom_reset(e) {
		if (e.attributes != undefined) {
			orig_load(e, "x");
			orig_load(e, "width");
		}
		if (e.childNodes == undefined) return;
		for (var i = 0, c = e.childNodes; i < c.length; i++) {
			zoom_reset(c[i]);
		}
	}
	function zoom_child(e, x, ratio) {
		if (e.attributes != undefined) {
			if (e.attributes.x != undefined) {
				orig_save(e, "x");
				e.attributes.x.value = (parseFloat(e.attributes.x.value) - x - 10) * ratio + 10;
				if (e.tagName == "text")
					e.attributes.x.value = find_child(e.parentNode, "rect[x]").attributes.x.value + 3;
			}
			if (e.attributes.width != undefined) {
				orig_save(e, "width");
				e.attributes.width.value = parseFloat(e.attributes.width.value) * ratio;
			}
		}

		if (e.childNodes == undefined) return;
		for (var i = 0, c = e.childNodes; i < c.length; i++) {
			zoom_child(c[i], x - 10, ratio);
		}
	}
	function zoom_parent(e) {
		if (e.attributes) {
			if (e.attributes.x != undefined) {
				orig_save(e, "x");
				e.attributes.x.value = 10;
			}
			if (e.attributes.width != undefined) {
				orig_save(e, "width");
				e.attributes.width.value = parseInt(svg.width.baseVal.value) - (10 * 2);
			}
		}
		if (e.childNodes == undefined) return;
		for (var i = 0, c = e.childNodes; i < c.length; i++) {
			zoom_parent(c[i]);
		}
	}
	function zoom(node) {
		var attr = find_child(node, "rect").attributes;
		var width = parseFloat(attr.width.value);
		var xmin = parseFloat(attr.x.value);
		var xmax = parseFloat(xmin + width);
		var ymin = parseFloat(attr.y.value);
		var ratio = (svg.width.baseVal.value - 2 * 10) / width;

		// XXX: Workaround for JavaScript float issues (fix me)
		var fudge = 0.0001;

		unzoombtn.classList.remove("hide");

		var el = document.getElementById("frames").children;
		for (var i = 0; i < el.length; i++) {
			var e = el[i];
			var a = find_child(e, "rect").attributes;
			var ex = parseFloat(a.x.value);
			var ew = parseFloat(a.width.value);
			var upstack;
			// Is it an ancestor
			if (0 == 0) {
				upstack = parseFloat(a.y.value) > ymin;
			} else {
				upstack = parseFloat(a.y.value) < ymin;
			}
			if (upstack) {
				// Direct ancestor
				if (ex <= xmin && (ex+ew+fudge) >= xmax) {
					e.classList.add("parent");
					zoom_parent(e);
					update_text(e);
				}
				// not in current path
				else
					e.classList.add("hide");
			}
			// Children maybe
			else {
				// no common path
				if (ex < xmin || ex + fudge >= xmax) {
					e.classList.add("hide");
				}
				else {
					zoom_child(e, xmin, ratio);
					update_text(e);
				}
			}
		}
		search();
	}
	function unzoom(dont_update_text) {
		unzoombtn.classList.add("hide");
		var el = document.getElementById("frames").children;
		for(var i = 0; i < el.length; i++) {
			el[i].classList.remove("parent");
			el[i].classList.remove("hide");
			zoom_reset(el[i]);
			if(!dont_update_text) update_text(el[i]);
		}
		search();
	}
	function clearzoom() {
		unzoom();

		// remove zoom state
		var params = get_params();
		if (params.x) delete params.x;
		if (params.y) delete params.y;
		history.replaceState(null, null, parse_params(params));
	}

	// search
	function toggle_ignorecase() {
		ignorecase = !ignorecase;
		if (ignorecase) {
			ignorecaseBtn.classList.add("show");
		} else {
			ignorecaseBtn.classList.remove("show");
		}
		reset_search();
		search();
	}
	function reset_search() {
		var el = document.querySelectorAll("#frames rect");
		for (var i = 0; i < el.length; i++) {
			orig_load(el[i], "fill")
		}
		var params = get_params();
		delete params.s;
		history.replaceState(null, null, parse_params(params));
	}
	function search_prompt() {
		if (!searching) {
			var term = prompt("Enter a search term (regexp " +
			    "allowed, eg: ^ext4_)"
			    + (ignorecase ? ", ignoring case" : "")
			    + "\nPress Ctrl-i to toggle case sensitivity", "");
			if (term != null) search(term);
		} else {
			reset_search();
			searching = 0;
			currentSearchTerm = null;
			searchbtn.classList.remove("show");
			searchbtn.firstChild.nodeValue = "Search"
			matchedtxt.classList.add("hide");
			matchedtxt.firstChild.nodeValue = ""
		}
	}
	function search(term) {
		if (term) currentSearchTerm = term;
		if (currentSearchTerm === null) return;

		var re = new RegExp(currentSearchTerm, ignorecase ? 'i' : '');
		var el = document.getElementById("frames").children;
		var matches = new Object();
		var maxwidth = 0;
		for (var i = 0; i < el.length; i++) {
			var e = el[i];
			var func = g_to_func(e);
			var rect = find_child(e, "rect");
			if (func == null || rect == null)
				continue;

			// Save max width. Only works as we have a root frame
			var w = parseFloat(rect.attributes.width.value);
			if (w > maxwidth)
				maxwidth = w;

			if (func.match(re)) {
				// highlight
				var x = parseFloat(rect.attributes.x.value);
				orig_save(rect, "fill");
				rect.attributes.fill.value = "rgb(230,0,230)";

				// remember matches
				if (matches[x] == undefined) {
					matches[x] = w;
				} else {
					if (w > matches[x]) {
						// overwrite with parent
						matches[x] = w;
					}
				}
				searching = 1;
			}
		}
		if (!searching)
			return;
		var params = get_params();
		params.s = currentSearchTerm;
		history.replaceState(null, null, parse_params(params));

		searchbtn.classList.add("show");
		searchbtn.firstChild.nodeValue = "Reset Search";

		// calculate percent matched, excluding vertical overlap
		var count = 0;
		var lastx = -1;
		var lastw = 0;
		var keys = Array();
		for (k in matches) {
			if (matches.hasOwnProperty(k))
				keys.push(k);
		}
		// sort the matched frames by their x location
		// ascending, then width descending
		keys.sort(function(a, b){
			return a - b;
		});
		// Step through frames saving only the biggest bottom-up frames
		// thanks to the sort order. This relies on the tree property
		// where children are always smaller than their parents.
		var fudge = 0.0001;	// JavaScript floating point
		for (var k in keys) {
			var x = parseFloat(keys[k]);
			var w = matches[keys[k]];
			if (x >= lastx + lastw - fudge) {
				count += w;
				lastx = x;
				lastw = w;
			}
		}
		// display matched percent
		matchedtxt.classList.remove("hide");
		var pct = 100 * count / maxwidth;
		if (pct != 100) pct = pct.toFixed(1)
		matchedtxt.firstChild.nodeValue = "Matched: " + pct + "%";
	}
]]>
</script>
<rect x="0.0" y="0" width="1200.0" height="598.0" fill="url(#background)"  />
<text id="title" x="600.00" y="24" >Flame Graph</text>
<text id="details" x="10.00" y="581" > </text>
<text id="unzoom" x="10.00" y="24" class="hide">Reset Zoom</text>
<text id="search" x="1090.00" y="24" >Search</text>
<text id="ignorecase" x="1174.00" y="24" >ic</text>
<text id="matched" x="1090.00" y="581" > </text>
<g id="frames">
<g >
<title>do_anonymous_page (1,747,009 samples, 1.52%)</title><rect x="1154.7" y="277" width="18.0" height="15.0" fill="rgb(238,155,37)" rx="2" ry="2" />
<text  x="1157.71" y="287.5" ></text>
</g>
<g >
<title>_dl_sysdep_start (1,683,897 samples, 1.47%)</title><rect x="1172.7" y="485" width="17.3" height="15.0" fill="rgb(234,137,32)" rx="2" ry="2" />
<text  x="1175.66" y="495.5" ></text>
</g>
<g >
<title>do_mmap (191,348 samples, 0.17%)</title><rect x="1175.8" y="213" width="1.9" height="15.0" fill="rgb(228,107,25)" rx="2" ry="2" />
<text  x="1178.76" y="223.5" ></text>
</g>
<g >
<title>folio_alloc_mpol_noprof (944,426 samples, 0.82%)</title><rect x="1130.2" y="245" width="9.7" height="15.0" fill="rgb(219,64,15)" rx="2" ry="2" />
<text  x="1133.19" y="255.5" ></text>
</g>
<g >
<title>invoke_syscall (403,634 samples, 0.35%)</title><rect x="1185.8" y="341" width="4.2" height="15.0" fill="rgb(209,18,4)" rx="2" ry="2" />
<text  x="1188.81" y="351.5" ></text>
</g>
<g >
<title>zap_pmd_range.isra.0 (646,540 samples, 0.56%)</title><rect x="1113.9" y="181" width="6.7" height="15.0" fill="rgb(244,180,43)" rx="2" ry="2" />
<text  x="1116.92" y="191.5" ></text>
</g>
<g >
<title>do_el0_svc (128,007 samples, 0.11%)</title><rect x="10.0" y="453" width="1.3" height="15.0" fill="rgb(218,60,14)" rx="2" ry="2" />
<text  x="13.00" y="463.5" ></text>
</g>
<g >
<title>vma_alloc_folio_noprof (586,544 samples, 0.51%)</title><rect x="1166.6" y="229" width="6.1" height="15.0" fill="rgb(218,61,14)" rx="2" ry="2" />
<text  x="1169.63" y="239.5" ></text>
</g>
<g >
<title>alloc_pages_mpol (586,544 samples, 0.51%)</title><rect x="1166.6" y="197" width="6.1" height="15.0" fill="rgb(254,227,54)" rx="2" ry="2" />
<text  x="1169.63" y="207.5" ></text>
</g>
<g >
<title>alloc_anon_folio (1,409,548 samples, 1.23%)</title><rect x="1125.4" y="293" width="14.5" height="15.0" fill="rgb(223,86,20)" rx="2" ry="2" />
<text  x="1128.41" y="303.5" ></text>
</g>
<g >
<title>folio_alloc_mpol_noprof (586,544 samples, 0.51%)</title><rect x="1166.6" y="213" width="6.1" height="15.0" fill="rgb(219,64,15)" rx="2" ry="2" />
<text  x="1169.63" y="223.5" ></text>
</g>
<g >
<title>cfree@GLIBC_2.17 (1,294,587 samples, 1.13%)</title><rect x="1107.3" y="453" width="13.3" height="15.0" fill="rgb(224,88,21)" rx="2" ry="2" />
<text  x="1110.26" y="463.5" ></text>
</g>
<g >
<title>[unknown] (128,007 samples, 0.11%)</title><rect x="10.0" y="517" width="1.3" height="15.0" fill="rgb(210,24,5)" rx="2" ry="2" />
<text  x="13.00" y="527.5" ></text>
</g>
<g >
<title>zap_present_ptes (646,540 samples, 0.56%)</title><rect x="1113.9" y="149" width="6.7" height="15.0" fill="rgb(212,32,7)" rx="2" ry="2" />
<text  x="1116.92" y="159.5" ></text>
</g>
<g >
<title>__libc_start_main@@GLIBC_2.34 (113,052,628 samples, 98.42%)</title><rect x="11.3" y="501" width="1161.4" height="15.0" fill="rgb(229,113,27)" rx="2" ry="2" />
<text  x="14.31" y="511.5" >__libc_start_main@@GLIBC_2.34</text>
</g>
<g >
<title>do_el0_svc (302,401 samples, 0.26%)</title><rect x="1172.7" y="309" width="3.1" height="15.0" fill="rgb(218,60,14)" rx="2" ry="2" />
<text  x="1175.66" y="319.5" ></text>
</g>
<g >
<title>vma_alloc_folio_noprof (944,426 samples, 0.82%)</title><rect x="1130.2" y="261" width="9.7" height="15.0" fill="rgb(218,61,14)" rx="2" ry="2" />
<text  x="1133.19" y="271.5" ></text>
</g>
<g >
<title>charge_memcg (465,122 samples, 0.40%)</title><rect x="1125.4" y="261" width="4.8" height="15.0" fill="rgb(242,170,40)" rx="2" ry="2" />
<text  x="1128.41" y="271.5" ></text>
</g>
<g >
<title>__tlb_batch_free_encoded_pages (403,634 samples, 0.35%)</title><rect x="1185.8" y="229" width="4.2" height="15.0" fill="rgb(205,3,0)" rx="2" ry="2" />
<text  x="1188.81" y="239.5" ></text>
</g>
<g >
<title>vma_alloc_zeroed_movable_folio (668,749 samples, 0.58%)</title><rect x="1100.4" y="261" width="6.9" height="15.0" fill="rgb(232,126,30)" rx="2" ry="2" />
<text  x="1103.39" y="271.5" ></text>
</g>
<g >
<title>elf_load (31,019 samples, 0.03%)</title><rect x="10.9" y="309" width="0.3" height="15.0" fill="rgb(253,223,53)" rx="2" ry="2" />
<text  x="13.90" y="319.5" ></text>
</g>
<g >
<title>_dl_map_object_deps (493,749 samples, 0.43%)</title><rect x="1172.7" y="453" width="5.0" height="15.0" fill="rgb(219,68,16)" rx="2" ry="2" />
<text  x="1175.66" y="463.5" ></text>
</g>
<g >
<title>el0t_64_sync_handler (1,334,787 samples, 1.16%)</title><rect x="1093.5" y="421" width="13.8" height="15.0" fill="rgb(211,32,7)" rx="2" ry="2" />
<text  x="1096.55" y="431.5" ></text>
</g>
<g >
<title>memcg1_commit_charge (465,122 samples, 0.40%)</title><rect x="1125.4" y="245" width="4.8" height="15.0" fill="rgb(219,66,15)" rx="2" ry="2" />
<text  x="1128.41" y="255.5" ></text>
</g>
<g >
<title>handle_pte_fault (1,747,009 samples, 1.52%)</title><rect x="1154.7" y="293" width="18.0" height="15.0" fill="rgb(217,57,13)" rx="2" ry="2" />
<text  x="1157.71" y="303.5" ></text>
</g>
<g >
<title>bprm_execve (128,007 samples, 0.11%)</title><rect x="10.0" y="373" width="1.3" height="15.0" fill="rgb(218,61,14)" rx="2" ry="2" />
<text  x="13.00" y="383.5" ></text>
</g>
<g >
<title>do_el0_svc (1,294,587 samples, 1.13%)</title><rect x="1107.3" y="373" width="13.3" height="15.0" fill="rgb(218,60,14)" rx="2" ry="2" />
<text  x="1110.26" y="383.5" ></text>
</g>
<g >
<title>vdso_install_vvar_mapping (87,260 samples, 0.08%)</title><rect x="10.0" y="293" width="0.9" height="15.0" fill="rgb(231,122,29)" rx="2" ry="2" />
<text  x="13.00" y="303.5" ></text>
</g>
<g >
<title>el0_svc (1,294,587 samples, 1.13%)</title><rect x="1107.3" y="389" width="13.3" height="15.0" fill="rgb(244,183,43)" rx="2" ry="2" />
<text  x="1110.26" y="399.5" ></text>
</g>
<g >
<title>ksys_mmap_pgoff (191,348 samples, 0.17%)</title><rect x="1175.8" y="245" width="1.9" height="15.0" fill="rgb(245,185,44)" rx="2" ry="2" />
<text  x="1178.76" y="255.5" ></text>
</g>
<g >
<title>munmap (403,634 samples, 0.35%)</title><rect x="1185.8" y="437" width="4.2" height="15.0" fill="rgb(238,155,37)" rx="2" ry="2" />
<text  x="1188.81" y="447.5" ></text>
</g>
<g >
<title>el0t_64_sync (403,634 samples, 0.35%)</title><rect x="1185.8" y="421" width="4.2" height="15.0" fill="rgb(217,56,13)" rx="2" ry="2" />
<text  x="1188.81" y="431.5" ></text>
</g>
<g >
<title>el0_svc (128,007 samples, 0.11%)</title><rect x="10.0" y="469" width="1.3" height="15.0" fill="rgb(244,183,43)" rx="2" ry="2" />
<text  x="13.00" y="479.5" ></text>
</g>
<g >
<title>_start (114,736,525 samples, 99.88%)</title><rect x="11.3" y="517" width="1178.7" height="15.0" fill="rgb(245,185,44)" rx="2" ry="2" />
<text  x="14.31" y="527.5" >_start</text>
</g>
<g >
<title>vms_clear_ptes (403,634 samples, 0.35%)</title><rect x="1185.8" y="245" width="4.2" height="15.0" fill="rgb(206,4,1)" rx="2" ry="2" />
<text  x="1188.81" y="255.5" ></text>
</g>
<g >
<title>get_random_u16 (302,401 samples, 0.26%)</title><rect x="1172.7" y="261" width="3.1" height="15.0" fill="rgb(207,9,2)" rx="2" ry="2" />
<text  x="1175.66" y="271.5" ></text>
</g>
<g >
<title>el0t_64_sync_handler (1,747,009 samples, 1.52%)</title><rect x="1154.7" y="405" width="18.0" height="15.0" fill="rgb(211,32,7)" rx="2" ry="2" />
<text  x="1157.71" y="415.5" ></text>
</g>
<g >
<title>folios_put_refs (648,047 samples, 0.56%)</title><rect x="1107.3" y="181" width="6.6" height="15.0" fill="rgb(254,229,54)" rx="2" ry="2" />
<text  x="1110.26" y="191.5" ></text>
</g>
<g >
<title>mas_store_prealloc (191,348 samples, 0.17%)</title><rect x="1175.8" y="101" width="1.9" height="15.0" fill="rgb(223,85,20)" rx="2" ry="2" />
<text  x="1178.76" y="111.5" ></text>
</g>
<g >
<title>dl_main (1,683,897 samples, 1.47%)</title><rect x="1172.7" y="469" width="17.3" height="15.0" fill="rgb(236,145,34)" rx="2" ry="2" />
<text  x="1175.66" y="479.5" ></text>
</g>
<g >
<title>el0t_64_sync (1,747,009 samples, 1.52%)</title><rect x="1154.7" y="421" width="18.0" height="15.0" fill="rgb(217,56,13)" rx="2" ry="2" />
<text  x="1157.71" y="431.5" ></text>
</g>
<g >
<title>__pi_clear_page (586,544 samples, 0.51%)</title><rect x="1166.6" y="149" width="6.1" height="15.0" fill="rgb(236,144,34)" rx="2" ry="2" />
<text  x="1169.63" y="159.5" ></text>
</g>
<g >
<title>__mem_cgroup_charge (465,122 samples, 0.40%)</title><rect x="1125.4" y="277" width="4.8" height="15.0" fill="rgb(218,60,14)" rx="2" ry="2" />
<text  x="1128.41" y="287.5" ></text>
</g>
<g >
<title>el0_svc (302,401 samples, 0.26%)</title><rect x="1172.7" y="325" width="3.1" height="15.0" fill="rgb(244,183,43)" rx="2" ry="2" />
<text  x="1175.66" y="335.5" ></text>
</g>
<g >
<title>vms_gather_munmap_vmas (191,348 samples, 0.17%)</title><rect x="1175.8" y="149" width="1.9" height="15.0" fill="rgb(250,209,50)" rx="2" ry="2" />
<text  x="1178.76" y="159.5" ></text>
</g>
<g >
<title>__pte_offset_map_lock (567,545 samples, 0.49%)</title><rect x="1154.7" y="261" width="5.8" height="15.0" fill="rgb(240,163,39)" rx="2" ry="2" />
<text  x="1157.71" y="271.5" ></text>
</g>
<g >
<title>mas_wr_store_entry (191,348 samples, 0.17%)</title><rect x="1175.8" y="85" width="1.9" height="15.0" fill="rgb(215,46,11)" rx="2" ry="2" />
<text  x="1178.76" y="95.5" ></text>
</g>
<g >
<title>do_vmi_align_munmap (403,634 samples, 0.35%)</title><rect x="1185.8" y="277" width="4.2" height="15.0" fill="rgb(211,29,7)" rx="2" ry="2" />
<text  x="1188.81" y="287.5" ></text>
</g>
<g >
<title>__vm_munmap (403,634 samples, 0.35%)</title><rect x="1185.8" y="309" width="4.2" height="15.0" fill="rgb(231,121,28)" rx="2" ry="2" />
<text  x="1188.81" y="319.5" ></text>
</g>
<g >
<title>_dl_relocate_object (786,514 samples, 0.68%)</title><rect x="1177.7" y="453" width="8.1" height="15.0" fill="rgb(231,120,28)" rx="2" ry="2" />
<text  x="1180.73" y="463.5" ></text>
</g>
<g >
<title>post_alloc_hook (513,658 samples, 0.45%)</title><rect x="1134.6" y="181" width="5.3" height="15.0" fill="rgb(227,104,24)" rx="2" ry="2" />
<text  x="1137.61" y="191.5" ></text>
</g>
<g >
<title>el0t_64_sync_handler (1,294,587 samples, 1.13%)</title><rect x="1107.3" y="405" width="13.3" height="15.0" fill="rgb(211,32,7)" rx="2" ry="2" />
<text  x="1110.26" y="415.5" ></text>
</g>
<g >
<title>main (114,864,532 samples, 100.00%)</title><rect x="10.0" y="533" width="1180.0" height="15.0" fill="rgb(243,179,42)" rx="2" ry="2" />
<text  x="13.00" y="543.5" >main</text>
</g>
<g >
<title>do_el0_svc (191,348 samples, 0.17%)</title><rect x="1175.8" y="309" width="1.9" height="15.0" fill="rgb(218,60,14)" rx="2" ry="2" />
<text  x="1178.76" y="319.5" ></text>
</g>
<g >
<title>__folio_batch_add_and_move (487,478 samples, 0.42%)</title><rect x="1139.9" y="261" width="5.0" height="15.0" fill="rgb(254,227,54)" rx="2" ry="2" />
<text  x="1142.89" y="271.5" ></text>
</g>
<g >
<title>do_vmi_munmap (1,294,587 samples, 1.13%)</title><rect x="1107.3" y="293" width="13.3" height="15.0" fill="rgb(253,223,53)" rx="2" ry="2" />
<text  x="1110.26" y="303.5" ></text>
</g>
<g >
<title>mas_walk (955,466 samples, 0.83%)</title><rect x="1144.9" y="341" width="9.8" height="15.0" fill="rgb(242,170,40)" rx="2" ry="2" />
<text  x="1147.90" y="351.5" ></text>
</g>
<g >
<title>el0_svc_common.constprop.0 (302,401 samples, 0.26%)</title><rect x="1172.7" y="293" width="3.1" height="15.0" fill="rgb(224,89,21)" rx="2" ry="2" />
<text  x="1175.66" y="303.5" ></text>
</g>
<g >
<title>el0_svc (191,348 samples, 0.17%)</title><rect x="1175.8" y="325" width="1.9" height="15.0" fill="rgb(244,183,43)" rx="2" ry="2" />
<text  x="1178.76" y="335.5" ></text>
</g>
<g >
<title>do_el0_svc (403,634 samples, 0.35%)</title><rect x="1185.8" y="373" width="4.2" height="15.0" fill="rgb(218,60,14)" rx="2" ry="2" />
<text  x="1188.81" y="383.5" ></text>
</g>
<g >
<title>handle_pte_fault (2,369,211 samples, 2.06%)</title><rect x="1120.6" y="325" width="24.3" height="15.0" fill="rgb(217,57,13)" rx="2" ry="2" />
<text  x="1123.56" y="335.5" >h..</text>
</g>
<g >
<title>alloc_pages_mpol (668,749 samples, 0.58%)</title><rect x="1100.4" y="213" width="6.9" height="15.0" fill="rgb(254,227,54)" rx="2" ry="2" />
<text  x="1103.39" y="223.5" ></text>
</g>
<g >
<title>folio_add_lru_vma (487,478 samples, 0.42%)</title><rect x="1139.9" y="293" width="5.0" height="15.0" fill="rgb(252,216,51)" rx="2" ry="2" />
<text  x="1142.89" y="303.5" ></text>
</g>
<g >
<title>__arm64_sys_munmap (1,294,587 samples, 1.13%)</title><rect x="1107.3" y="325" width="13.3" height="15.0" fill="rgb(214,44,10)" rx="2" ry="2" />
<text  x="1110.26" y="335.5" ></text>
</g>
<g >
<title>invoke_syscall (1,294,587 samples, 1.13%)</title><rect x="1107.3" y="341" width="13.3" height="15.0" fill="rgb(209,18,4)" rx="2" ry="2" />
<text  x="1110.26" y="351.5" ></text>
</g>
<g >
<title>handle_pte_fault (668,749 samples, 0.58%)</title><rect x="1100.4" y="309" width="6.9" height="15.0" fill="rgb(217,57,13)" rx="2" ry="2" />
<text  x="1103.39" y="319.5" ></text>
</g>
<g >
<title>do_translation_fault (1,747,009 samples, 1.52%)</title><rect x="1154.7" y="357" width="18.0" height="15.0" fill="rgb(239,158,37)" rx="2" ry="2" />
<text  x="1157.71" y="367.5" ></text>
</g>
<g >
<title>mas_topiary_replace (191,348 samples, 0.17%)</title><rect x="1175.8" y="37" width="1.9" height="15.0" fill="rgb(221,73,17)" rx="2" ry="2" />
<text  x="1178.76" y="47.5" ></text>
</g>
<g >
<title>__mem_cgroup_charge (592,920 samples, 0.52%)</title><rect x="1160.5" y="245" width="6.1" height="15.0" fill="rgb(218,60,14)" rx="2" ry="2" />
<text  x="1163.54" y="255.5" ></text>
</g>
<g >
<title>__tlb_batch_free_encoded_pages (648,047 samples, 0.56%)</title><rect x="1107.3" y="213" width="6.6" height="15.0" fill="rgb(205,3,0)" rx="2" ry="2" />
<text  x="1110.26" y="223.5" ></text>
</g>
<g >
<title>alloc_anon_folio (1,179,464 samples, 1.03%)</title><rect x="1160.5" y="261" width="12.2" height="15.0" fill="rgb(223,86,20)" rx="2" ry="2" />
<text  x="1163.54" y="271.5" ></text>
</g>
<g >
<title>__arm64_sys_mmap (191,348 samples, 0.17%)</title><rect x="1175.8" y="261" width="1.9" height="15.0" fill="rgb(231,119,28)" rx="2" ry="2" />
<text  x="1178.76" y="271.5" ></text>
</g>
<g >
<title>el0_da (3,324,677 samples, 2.89%)</title><rect x="1120.6" y="421" width="34.1" height="15.0" fill="rgb(217,55,13)" rx="2" ry="2" />
<text  x="1123.56" y="431.5" >el..</text>
</g>
<g >
<title>mmap64 (191,348 samples, 0.17%)</title><rect x="1175.8" y="373" width="1.9" height="15.0" fill="rgb(220,70,16)" rx="2" ry="2" />
<text  x="1178.76" y="383.5" ></text>
</g>
<g >
<title>handle_mm_fault (1,747,009 samples, 1.52%)</title><rect x="1154.7" y="325" width="18.0" height="15.0" fill="rgb(234,135,32)" rx="2" ry="2" />
<text  x="1157.71" y="335.5" ></text>
</g>
<g >
<title>__alloc_frozen_pages_noprof (944,426 samples, 0.82%)</title><rect x="1130.2" y="213" width="9.7" height="15.0" fill="rgb(228,109,26)" rx="2" ry="2" />
<text  x="1133.19" y="223.5" ></text>
</g>
<g >
<title>get_page_from_freelist (586,544 samples, 0.51%)</title><rect x="1166.6" y="165" width="6.1" height="15.0" fill="rgb(252,218,52)" rx="2" ry="2" />
<text  x="1169.63" y="175.5" ></text>
</g>
<g >
<title>bprm_execve.part.0 (128,007 samples, 0.11%)</title><rect x="10.0" y="357" width="1.3" height="15.0" fill="rgb(228,106,25)" rx="2" ry="2" />
<text  x="13.00" y="367.5" ></text>
</g>
<g >
<title>el0t_64_sync_handler (3,324,677 samples, 2.89%)</title><rect x="1120.6" y="437" width="34.1" height="15.0" fill="rgb(211,32,7)" rx="2" ry="2" />
<text  x="1123.56" y="447.5" >el..</text>
</g>
<g >
<title>el0t_64_sync (3,324,677 samples, 2.89%)</title><rect x="1120.6" y="453" width="34.1" height="15.0" fill="rgb(217,56,13)" rx="2" ry="2" />
<text  x="1123.56" y="463.5" >el..</text>
</g>
<g >
<title>__pte_offset_map_lock (472,185 samples, 0.41%)</title><rect x="1120.6" y="293" width="4.8" height="15.0" fill="rgb(240,163,39)" rx="2" ry="2" />
<text  x="1123.56" y="303.5" ></text>
</g>
<g >
<title>memcg1_commit_charge (592,920 samples, 0.52%)</title><rect x="1160.5" y="213" width="6.1" height="15.0" fill="rgb(219,66,15)" rx="2" ry="2" />
<text  x="1163.54" y="223.5" ></text>
</g>
<g >
<title>unmap_vmas (646,540 samples, 0.56%)</title><rect x="1113.9" y="229" width="6.7" height="15.0" fill="rgb(243,176,42)" rx="2" ry="2" />
<text  x="1116.92" y="239.5" ></text>
</g>
<g >
<title>folio_add_lru (487,478 samples, 0.42%)</title><rect x="1139.9" y="277" width="5.0" height="15.0" fill="rgb(208,17,4)" rx="2" ry="2" />
<text  x="1142.89" y="287.5" ></text>
</g>
<g >
<title>__memset_zva64 (1,334,787 samples, 1.16%)</title><rect x="1093.5" y="453" width="13.8" height="15.0" fill="rgb(205,1,0)" rx="2" ry="2" />
<text  x="1096.55" y="463.5" ></text>
</g>
<g >
<title>std::vector&lt;int, std::allocator&lt;int&gt; &gt;::vector (1,747,009 samples, 1.52%)</title><rect x="1154.7" y="453" width="18.0" height="15.0" fill="rgb(216,53,12)" rx="2" ry="2" />
<text  x="1157.71" y="463.5" ></text>
</g>
<g >
<title>handle_mm_fault (2,369,211 samples, 2.06%)</title><rect x="1120.6" y="357" width="24.3" height="15.0" fill="rgb(234,135,32)" rx="2" ry="2" />
<text  x="1123.56" y="367.5" >h..</text>
</g>
<g >
<title>do_execveat_common.isra.0 (128,007 samples, 0.11%)</title><rect x="10.0" y="389" width="1.3" height="15.0" fill="rgb(231,123,29)" rx="2" ry="2" />
<text  x="13.00" y="399.5" ></text>
</g>
<g >
<title>do_mem_abort (668,749 samples, 0.58%)</title><rect x="1100.4" y="389" width="6.9" height="15.0" fill="rgb(249,206,49)" rx="2" ry="2" />
<text  x="1103.39" y="399.5" ></text>
</g>
<g >
<title>vma_alloc_zeroed_movable_folio (944,426 samples, 0.82%)</title><rect x="1130.2" y="277" width="9.7" height="15.0" fill="rgb(232,126,30)" rx="2" ry="2" />
<text  x="1133.19" y="287.5" ></text>
</g>
<g >
<title>el0_da (1,334,787 samples, 1.16%)</title><rect x="1093.5" y="405" width="13.8" height="15.0" fill="rgb(217,55,13)" rx="2" ry="2" />
<text  x="1096.55" y="415.5" ></text>
</g>
<g >
<title>vms_complete_munmap_vmas (403,634 samples, 0.35%)</title><rect x="1185.8" y="261" width="4.2" height="15.0" fill="rgb(216,52,12)" rx="2" ry="2" />
<text  x="1188.81" y="271.5" ></text>
</g>
<g >
<title>el0t_64_sync_handler (128,007 samples, 0.11%)</title><rect x="10.0" y="485" width="1.3" height="15.0" fill="rgb(211,32,7)" rx="2" ry="2" />
<text  x="13.00" y="495.5" ></text>
</g>
<g >
<title>policy_nodemask (668,749 samples, 0.58%)</title><rect x="1100.4" y="197" width="6.9" height="15.0" fill="rgb(221,74,17)" rx="2" ry="2" />
<text  x="1103.39" y="207.5" ></text>
</g>
<g >
<title>do_translation_fault (668,749 samples, 0.58%)</title><rect x="1100.4" y="373" width="6.9" height="15.0" fill="rgb(239,158,37)" rx="2" ry="2" />
<text  x="1103.39" y="383.5" ></text>
</g>
<g >
<title>load_elf_binary (128,007 samples, 0.11%)</title><rect x="10.0" y="325" width="1.3" height="15.0" fill="rgb(223,83,20)" rx="2" ry="2" />
<text  x="13.00" y="335.5" ></text>
</g>
<g >
<title>invoke_syscall (128,007 samples, 0.11%)</title><rect x="10.0" y="421" width="1.3" height="15.0" fill="rgb(209,18,4)" rx="2" ry="2" />
<text  x="13.00" y="431.5" ></text>
</g>
<g >
<title>do_anonymous_page (668,749 samples, 0.58%)</title><rect x="1100.4" y="293" width="6.9" height="15.0" fill="rgb(238,155,37)" rx="2" ry="2" />
<text  x="1103.39" y="303.5" ></text>
</g>
<g >
<title>lock_vma_under_rcu (955,466 samples, 0.83%)</title><rect x="1144.9" y="357" width="9.8" height="15.0" fill="rgb(251,211,50)" rx="2" ry="2" />
<text  x="1147.90" y="367.5" ></text>
</g>
<g >
<title>do_vmi_align_munmap (1,294,587 samples, 1.13%)</title><rect x="1107.3" y="277" width="13.3" height="15.0" fill="rgb(211,29,7)" rx="2" ry="2" />
<text  x="1110.26" y="287.5" ></text>
</g>
<g >
<title>_dl_catch_exception (493,749 samples, 0.43%)</title><rect x="1172.7" y="437" width="5.0" height="15.0" fill="rgb(253,223,53)" rx="2" ry="2" />
<text  x="1175.66" y="447.5" ></text>
</g>
<g >
<title>_dl_map_object_from_fd (493,749 samples, 0.43%)</title><rect x="1172.7" y="389" width="5.0" height="15.0" fill="rgb(249,205,49)" rx="2" ry="2" />
<text  x="1175.66" y="399.5" ></text>
</g>
<g >
<title>__arm64_sys_execve (128,007 samples, 0.11%)</title><rect x="10.0" y="405" width="1.3" height="15.0" fill="rgb(205,0,0)" rx="2" ry="2" />
<text  x="13.00" y="415.5" ></text>
</g>
<g >
<title>__mmap_prepare (191,348 samples, 0.17%)</title><rect x="1175.8" y="165" width="1.9" height="15.0" fill="rgb(212,35,8)" rx="2" ry="2" />
<text  x="1178.76" y="175.5" ></text>
</g>
<g >
<title>folio_batch_move_lru (487,478 samples, 0.42%)</title><rect x="1139.9" y="245" width="5.0" height="15.0" fill="rgb(207,10,2)" rx="2" ry="2" />
<text  x="1142.89" y="255.5" ></text>
</g>
<g >
<title>__GI___close_nocancel (302,401 samples, 0.26%)</title><rect x="1172.7" y="373" width="3.1" height="15.0" fill="rgb(207,11,2)" rx="2" ry="2" />
<text  x="1175.66" y="383.5" ></text>
</g>
<g >
<title>vma_complete (191,348 samples, 0.17%)</title><rect x="1175.8" y="117" width="1.9" height="15.0" fill="rgb(220,72,17)" rx="2" ry="2" />
<text  x="1178.76" y="127.5" ></text>
</g>
<g >
<title>el0_svc_common.constprop.0 (191,348 samples, 0.17%)</title><rect x="1175.8" y="293" width="1.9" height="15.0" fill="rgb(224,89,21)" rx="2" ry="2" />
<text  x="1178.76" y="303.5" ></text>
</g>
<g >
<title>get_page_from_freelist (513,658 samples, 0.45%)</title><rect x="1134.6" y="197" width="5.3" height="15.0" fill="rgb(252,218,52)" rx="2" ry="2" />
<text  x="1137.61" y="207.5" ></text>
</g>
<g >
<title>el0_svc_common.constprop.0 (403,634 samples, 0.35%)</title><rect x="1185.8" y="357" width="4.2" height="15.0" fill="rgb(224,89,21)" rx="2" ry="2" />
<text  x="1188.81" y="367.5" ></text>
</g>
<g >
<title>_dl_unload_cache (403,634 samples, 0.35%)</title><rect x="1185.8" y="453" width="4.2" height="15.0" fill="rgb(245,184,44)" rx="2" ry="2" />
<text  x="1188.81" y="463.5" ></text>
</g>
<g >
<title>__handle_mm_fault (668,749 samples, 0.58%)</title><rect x="1100.4" y="325" width="6.9" height="15.0" fill="rgb(207,9,2)" rx="2" ry="2" />
<text  x="1103.39" y="335.5" ></text>
</g>
<g >
<title>__libc_start_call_main (113,052,628 samples, 98.42%)</title><rect x="11.3" y="485" width="1161.4" height="15.0" fill="rgb(210,26,6)" rx="2" ry="2" />
<text  x="14.31" y="495.5" >__libc_start_call_main</text>
</g>
<g >
<title>__handle_mm_fault (1,747,009 samples, 1.52%)</title><rect x="1154.7" y="309" width="18.0" height="15.0" fill="rgb(207,9,2)" rx="2" ry="2" />
<text  x="1157.71" y="319.5" ></text>
</g>
<g >
<title>mas_wr_bnode (191,348 samples, 0.17%)</title><rect x="1175.8" y="69" width="1.9" height="15.0" fill="rgb(248,198,47)" rx="2" ry="2" />
<text  x="1178.76" y="79.5" ></text>
</g>
<g >
<title>__handle_mm_fault (2,369,211 samples, 2.06%)</title><rect x="1120.6" y="341" width="24.3" height="15.0" fill="rgb(207,9,2)" rx="2" ry="2" />
<text  x="1123.56" y="351.5" >_..</text>
</g>
<g >
<title>el0t_64_sync (1,334,787 samples, 1.16%)</title><rect x="1093.5" y="437" width="13.8" height="15.0" fill="rgb(217,56,13)" rx="2" ry="2" />
<text  x="1096.55" y="447.5" ></text>
</g>
<g >
<title>el0t_64_sync (128,007 samples, 0.11%)</title><rect x="10.0" y="501" width="1.3" height="15.0" fill="rgb(217,56,13)" rx="2" ry="2" />
<text  x="13.00" y="511.5" ></text>
</g>
<g >
<title>vms_clear_ptes (1,294,587 samples, 1.13%)</title><rect x="1107.3" y="245" width="13.3" height="15.0" fill="rgb(206,4,1)" rx="2" ry="2" />
<text  x="1110.26" y="255.5" ></text>
</g>
<g >
<title>invoke_syscall (302,401 samples, 0.26%)</title><rect x="1172.7" y="277" width="3.1" height="15.0" fill="rgb(209,18,4)" rx="2" ry="2" />
<text  x="1175.66" y="287.5" ></text>
</g>
<g >
<title>do_mem_abort (3,324,677 samples, 2.89%)</title><rect x="1120.6" y="405" width="34.1" height="15.0" fill="rgb(249,206,49)" rx="2" ry="2" />
<text  x="1123.56" y="415.5" >do..</text>
</g>
<g >
<title>folios_put_refs (487,478 samples, 0.42%)</title><rect x="1139.9" y="229" width="5.0" height="15.0" fill="rgb(254,229,54)" rx="2" ry="2" />
<text  x="1142.89" y="239.5" ></text>
</g>
<g >
<title>__arm64_sys_munmap (403,634 samples, 0.35%)</title><rect x="1185.8" y="325" width="4.2" height="15.0" fill="rgb(214,44,10)" rx="2" ry="2" />
<text  x="1188.81" y="335.5" ></text>
</g>
<g >
<title>el0_svc_common.constprop.0 (128,007 samples, 0.11%)</title><rect x="10.0" y="437" width="1.3" height="15.0" fill="rgb(224,89,21)" rx="2" ry="2" />
<text  x="13.00" y="447.5" ></text>
</g>
<g >
<title>do_vmi_munmap (403,634 samples, 0.35%)</title><rect x="1185.8" y="293" width="4.2" height="15.0" fill="rgb(253,223,53)" rx="2" ry="2" />
<text  x="1188.81" y="303.5" ></text>
</g>
<g >
<title>el0t_64_sync_handler (302,401 samples, 0.26%)</title><rect x="1172.7" y="341" width="3.1" height="15.0" fill="rgb(211,32,7)" rx="2" ry="2" />
<text  x="1175.66" y="351.5" ></text>
</g>
<g >
<title>alloc_anon_folio (668,749 samples, 0.58%)</title><rect x="1100.4" y="277" width="6.9" height="15.0" fill="rgb(223,86,20)" rx="2" ry="2" />
<text  x="1103.39" y="287.5" ></text>
</g>
<g >
<title>unmap_page_range (646,540 samples, 0.56%)</title><rect x="1113.9" y="197" width="6.7" height="15.0" fill="rgb(206,5,1)" rx="2" ry="2" />
<text  x="1116.92" y="207.5" ></text>
</g>
<g >
<title>openaux (493,749 samples, 0.43%)</title><rect x="1172.7" y="421" width="5.0" height="15.0" fill="rgb(252,217,52)" rx="2" ry="2" />
<text  x="1175.66" y="431.5" ></text>
</g>
<g >
<title>tlb_finish_mmu (648,047 samples, 0.56%)</title><rect x="1107.3" y="229" width="6.6" height="15.0" fill="rgb(251,212,50)" rx="2" ry="2" />
<text  x="1110.26" y="239.5" ></text>
</g>
<g >
<title>special_mapping_name (87,260 samples, 0.08%)</title><rect x="10.0" y="245" width="0.9" height="15.0" fill="rgb(249,204,48)" rx="2" ry="2" />
<text  x="13.00" y="255.5" ></text>
</g>
<g >
<title>vma_alloc_zeroed_movable_folio (586,544 samples, 0.51%)</title><rect x="1166.6" y="245" width="6.1" height="15.0" fill="rgb(232,126,30)" rx="2" ry="2" />
<text  x="1169.63" y="255.5" ></text>
</g>
<g >
<title>_dl_start (1,683,897 samples, 1.47%)</title><rect x="1172.7" y="501" width="17.3" height="15.0" fill="rgb(237,151,36)" rx="2" ry="2" />
<text  x="1175.66" y="511.5" ></text>
</g>
<g >
<title>_dl_map_object (493,749 samples, 0.43%)</title><rect x="1172.7" y="405" width="5.0" height="15.0" fill="rgb(248,199,47)" rx="2" ry="2" />
<text  x="1175.66" y="415.5" ></text>
</g>
<g >
<title>el0t_64_sync_handler (403,634 samples, 0.35%)</title><rect x="1185.8" y="405" width="4.2" height="15.0" fill="rgb(211,32,7)" rx="2" ry="2" />
<text  x="1188.81" y="415.5" ></text>
</g>
<g >
<title>unmap_single_vma.isra.0 (646,540 samples, 0.56%)</title><rect x="1113.9" y="213" width="6.7" height="15.0" fill="rgb(236,145,34)" rx="2" ry="2" />
<text  x="1116.92" y="223.5" ></text>
</g>
<g >
<title>do_mem_abort (1,747,009 samples, 1.52%)</title><rect x="1154.7" y="373" width="18.0" height="15.0" fill="rgb(249,206,49)" rx="2" ry="2" />
<text  x="1157.71" y="383.5" ></text>
</g>
<g >
<title>all (114,868,828 samples, 100%)</title><rect x="10.0" y="549" width="1180.0" height="15.0" fill="rgb(213,39,9)" rx="2" ry="2" />
<text  x="13.00" y="559.5" ></text>
</g>
<g >
<title>do_translation_fault (3,324,677 samples, 2.89%)</title><rect x="1120.6" y="389" width="34.1" height="15.0" fill="rgb(239,158,37)" rx="2" ry="2" />
<text  x="1123.56" y="399.5" >do..</text>
</g>
<g >
<title>el0t_64_sync (302,401 samples, 0.26%)</title><rect x="1172.7" y="357" width="3.1" height="15.0" fill="rgb(217,56,13)" rx="2" ry="2" />
<text  x="1175.66" y="367.5" ></text>
</g>
<g >
<title>vm_mmap_pgoff (191,348 samples, 0.17%)</title><rect x="1175.8" y="229" width="1.9" height="15.0" fill="rgb(237,150,35)" rx="2" ry="2" />
<text  x="1178.76" y="239.5" ></text>
</g>
<g >
<title>do_page_fault (3,324,677 samples, 2.89%)</title><rect x="1120.6" y="373" width="34.1" height="15.0" fill="rgb(216,54,13)" rx="2" ry="2" />
<text  x="1123.56" y="383.5" >do..</text>
</g>
<g >
<title>vm_mmap (31,019 samples, 0.03%)</title><rect x="10.9" y="293" width="0.3" height="15.0" fill="rgb(225,92,22)" rx="2" ry="2" />
<text  x="13.90" y="303.5" ></text>
</g>
<g >
<title>__mmap_region (191,348 samples, 0.17%)</title><rect x="1175.8" y="181" width="1.9" height="15.0" fill="rgb(253,225,53)" rx="2" ry="2" />
<text  x="1178.76" y="191.5" ></text>
</g>
<g >
<title>el0_da (1,747,009 samples, 1.52%)</title><rect x="1154.7" y="389" width="18.0" height="15.0" fill="rgb(217,55,13)" rx="2" ry="2" />
<text  x="1157.71" y="399.5" ></text>
</g>
<g >
<title>zap_pte_range (646,540 samples, 0.56%)</title><rect x="1113.9" y="165" width="6.7" height="15.0" fill="rgb(231,120,28)" rx="2" ry="2" />
<text  x="1116.92" y="175.5" ></text>
</g>
<g >
<title>exec_binprm (128,007 samples, 0.11%)</title><rect x="10.0" y="341" width="1.3" height="15.0" fill="rgb(244,180,43)" rx="2" ry="2" />
<text  x="13.00" y="351.5" ></text>
</g>
<g >
<title>main (113,052,628 samples, 98.42%)</title><rect x="11.3" y="469" width="1161.4" height="15.0" fill="rgb(243,179,42)" rx="2" ry="2" />
<text  x="14.31" y="479.5" >main</text>
</g>
<g >
<title>charge_memcg (592,920 samples, 0.52%)</title><rect x="1160.5" y="229" width="6.1" height="15.0" fill="rgb(242,170,40)" rx="2" ry="2" />
<text  x="1163.54" y="239.5" ></text>
</g>
<g >
<title>perf_event_mmap (87,260 samples, 0.08%)</title><rect x="10.0" y="261" width="0.9" height="15.0" fill="rgb(229,112,26)" rx="2" ry="2" />
<text  x="13.00" y="271.5" ></text>
</g>
<g >
<title>el0_svc_common.constprop.0 (1,294,587 samples, 1.13%)</title><rect x="1107.3" y="357" width="13.3" height="15.0" fill="rgb(224,89,21)" rx="2" ry="2" />
<text  x="1110.26" y="367.5" ></text>
</g>
<g >
<title>_install_special_mapping (87,260 samples, 0.08%)</title><rect x="10.0" y="277" width="0.9" height="15.0" fill="rgb(226,98,23)" rx="2" ry="2" />
<text  x="13.00" y="287.5" ></text>
</g>
<g >
<title>vms_complete_munmap_vmas (1,294,587 samples, 1.13%)</title><rect x="1107.3" y="261" width="13.3" height="15.0" fill="rgb(216,52,12)" rx="2" ry="2" />
<text  x="1110.26" y="271.5" ></text>
</g>
<g >
<title>invoke_syscall (191,348 samples, 0.17%)</title><rect x="1175.8" y="277" width="1.9" height="15.0" fill="rgb(209,18,4)" rx="2" ry="2" />
<text  x="1178.76" y="287.5" ></text>
</g>
<g >
<title>free_pages_and_swap_cache (648,047 samples, 0.56%)</title><rect x="1107.3" y="197" width="6.6" height="15.0" fill="rgb(222,82,19)" rx="2" ry="2" />
<text  x="1110.26" y="207.5" ></text>
</g>
<g >
<title>__munmap (1,294,587 samples, 1.13%)</title><rect x="1107.3" y="437" width="13.3" height="15.0" fill="rgb(211,29,7)" rx="2" ry="2" />
<text  x="1110.26" y="447.5" ></text>
</g>
<g >
<title>vma_alloc_folio_noprof (668,749 samples, 0.58%)</title><rect x="1100.4" y="245" width="6.9" height="15.0" fill="rgb(218,61,14)" rx="2" ry="2" />
<text  x="1103.39" y="255.5" ></text>
</g>
<g >
<title>alloc_pages_mpol (944,426 samples, 0.82%)</title><rect x="1130.2" y="229" width="9.7" height="15.0" fill="rgb(254,227,54)" rx="2" ry="2" />
<text  x="1133.19" y="239.5" ></text>
</g>
<g >
<title>mas_split (191,348 samples, 0.17%)</title><rect x="1175.8" y="53" width="1.9" height="15.0" fill="rgb(234,135,32)" rx="2" ry="2" />
<text  x="1178.76" y="63.5" ></text>
</g>
<g >
<title>arch_setup_additional_pages (87,260 samples, 0.08%)</title><rect x="10.0" y="309" width="0.9" height="15.0" fill="rgb(236,146,35)" rx="2" ry="2" />
<text  x="13.00" y="319.5" ></text>
</g>
<g >
<title>do_page_fault (668,749 samples, 0.58%)</title><rect x="1100.4" y="357" width="6.9" height="15.0" fill="rgb(216,54,13)" rx="2" ry="2" />
<text  x="1103.39" y="367.5" ></text>
</g>
<g >
<title>folio_alloc_mpol_noprof (668,749 samples, 0.58%)</title><rect x="1100.4" y="229" width="6.9" height="15.0" fill="rgb(219,64,15)" rx="2" ry="2" />
<text  x="1103.39" y="239.5" ></text>
</g>
<g >
<title>el0t_64_sync (1,294,587 samples, 1.13%)</title><rect x="1107.3" y="421" width="13.3" height="15.0" fill="rgb(217,56,13)" rx="2" ry="2" />
<text  x="1110.26" y="431.5" ></text>
</g>
<g >
<title>do_anonymous_page (2,369,211 samples, 2.06%)</title><rect x="1120.6" y="309" width="24.3" height="15.0" fill="rgb(238,155,37)" rx="2" ry="2" />
<text  x="1123.56" y="319.5" >d..</text>
</g>
<g >
<title>do_page_fault (1,747,009 samples, 1.52%)</title><rect x="1154.7" y="341" width="18.0" height="15.0" fill="rgb(216,54,13)" rx="2" ry="2" />
<text  x="1157.71" y="351.5" ></text>
</g>
<g >
<title>el0_svc (403,634 samples, 0.35%)</title><rect x="1185.8" y="389" width="4.2" height="15.0" fill="rgb(244,183,43)" rx="2" ry="2" />
<text  x="1188.81" y="399.5" ></text>
</g>
<g >
<title>do_mmap (31,019 samples, 0.03%)</title><rect x="10.9" y="277" width="0.3" height="15.0" fill="rgb(228,107,25)" rx="2" ry="2" />
<text  x="13.90" y="287.5" ></text>
</g>
<g >
<title>mmap_region (191,348 samples, 0.17%)</title><rect x="1175.8" y="197" width="1.9" height="15.0" fill="rgb(231,121,28)" rx="2" ry="2" />
<text  x="1178.76" y="207.5" ></text>
</g>
<g >
<title>__split_vma (191,348 samples, 0.17%)</title><rect x="1175.8" y="133" width="1.9" height="15.0" fill="rgb(237,150,36)" rx="2" ry="2" />
<text  x="1178.76" y="143.5" ></text>
</g>
<g >
<title>__alloc_frozen_pages_noprof (586,544 samples, 0.51%)</title><rect x="1166.6" y="181" width="6.1" height="15.0" fill="rgb(228,109,26)" rx="2" ry="2" />
<text  x="1169.63" y="191.5" ></text>
</g>
<g >
<title>__vm_munmap (1,294,587 samples, 1.13%)</title><rect x="1107.3" y="309" width="13.3" height="15.0" fill="rgb(231,121,28)" rx="2" ry="2" />
<text  x="1110.26" y="319.5" ></text>
</g>
<g >
<title>el0t_64_sync (191,348 samples, 0.17%)</title><rect x="1175.8" y="357" width="1.9" height="15.0" fill="rgb(217,56,13)" rx="2" ry="2" />
<text  x="1178.76" y="367.5" ></text>
</g>
<g >
<title>__memset_zva64 (1,747,009 samples, 1.52%)</title><rect x="1154.7" y="437" width="18.0" height="15.0" fill="rgb(205,1,0)" rx="2" ry="2" />
<text  x="1157.71" y="447.5" ></text>
</g>
<g >
<title>do_lookup_x (786,514 samples, 0.68%)</title><rect x="1177.7" y="421" width="8.1" height="15.0" fill="rgb(245,187,44)" rx="2" ry="2" />
<text  x="1180.73" y="431.5" ></text>
</g>
<g >
<title>el0t_64_sync_handler (191,348 samples, 0.17%)</title><rect x="1175.8" y="341" width="1.9" height="15.0" fill="rgb(211,32,7)" rx="2" ry="2" />
<text  x="1178.76" y="351.5" ></text>
</g>
<g >
<title>handle_mm_fault (668,749 samples, 0.58%)</title><rect x="1100.4" y="341" width="6.9" height="15.0" fill="rgb(234,135,32)" rx="2" ry="2" />
<text  x="1103.39" y="351.5" ></text>
</g>
<g >
<title>_dl_lookup_symbol_x (786,514 samples, 0.68%)</title><rect x="1177.7" y="437" width="8.1" height="15.0" fill="rgb(211,28,6)" rx="2" ry="2" />
<text  x="1180.73" y="447.5" ></text>
</g>
</g>
</svg>
